<?xml version="1.0" encoding="UTF-8"?><svg id="Layer_1" xmlns="http://www.w3.org/2000/svg" viewBox="0 0 20.24 22.53"><defs><style>.cls-1{fill:#db3444;}.cls-2{fill:#8190a1;}</style></defs><circle class="cls-1" cx="15.29" cy="3.04" r="3.04"/><path class="cls-2" d="m19.38,15.87s-1.98-2.22-2.05-4.44c-.04-1.27.01-2.83-.27-4.41-.54.25-1.14.38-1.78.38-.05,0-.1,0-.15,0,.2,1.21.17,2.41.19,3.25.03,2.39,1.67,5.39,1.67,5.39l-14,.07c1.64-1.77,1.91-6.01,1.91-6.01,0,0-.48-7.3,5.09-7.27.35,0,.69.03.99.07.03-.69.23-1.33.54-1.9-.8-.21-1.37-.25-1.37-.25,0,0-3.31-.07-5.5,2.59s-1.33,6.11-1.95,8.29c-.61,2.18-1.54,3.79-1.54,3.79,0,0-1.37,1.09-1.16,1.81.2.72.72.72,1.4.72h17.85s.85,0,.96-.79c.1-.79-.85-1.3-.85-1.3Z"/><path class="cls-2" d="m10.12,22.53c-1.79,0-3.22-1.11-3.49-2.7-.08-.48.24-.93.72-1.01.48-.09.93.24,1.01.72.15.91,1.04,1.24,1.76,1.24s1.61-.32,1.76-1.24c.08-.48.53-.8,1.01-.72.48.08.8.53.72,1.01-.26,1.59-1.7,2.7-3.49,2.7Z"/></svg>