<?xml version="1.0" encoding="UTF-8"?><svg id="Layer_1" xmlns="http://www.w3.org/2000/svg" viewBox="0 0 21 23.05"><defs><style>.cls-1{fill:#8190a1;}</style></defs><path class="cls-1" d="m20.11,15.69s-2.05-2.3-2.13-4.6.14-5.53-1.7-8.15S10.54,0,10.54,0C10.54,0,7.11-.07,4.84,2.69s-1.38,6.34-2.02,8.61c-.64,2.27-1.59,3.93-1.59,3.93,0,0-1.42,1.13-1.2,1.88s.74.74,1.45.74h18.53s.89,0,.99-.81-.89-1.35-.89-1.35Zm-17,.25c1.7-1.84,1.98-6.23,1.98-6.23,0,0-.5-7.58,5.28-7.55,5.77.04,5.49,5.63,5.53,8.11.04,2.48,1.74,5.6,1.74,5.6l-14.52.07Z"/><path class="cls-1" d="m10.5,23.05c-1.79,0-3.22-1.11-3.49-2.7-.08-.48.24-.93.72-1.01.48-.09.93.24,1.01.72.15.91,1.04,1.24,1.76,1.24s1.61-.32,1.76-1.24c.08-.48.53-.8,1.01-.72.48.08.8.53.72,1.01-.26,1.59-1.7,2.7-3.49,2.7Z"/></svg>