<?xml version="1.0" encoding="UTF-8"?><svg id="Layer_1" xmlns="http://www.w3.org/2000/svg" viewBox="0 0 48 48"><defs><style>.cls-1{fill:#6b12de;}.cls-1,.cls-2{stroke-width:0px;}.cls-2{fill:#fff;}</style></defs><rect class="cls-2" width="48" height="48"/><path class="cls-1" d="m14,39v-3.33l1.67-1.67h-5c-.92,0-1.7-.33-2.35-.98-.65-.65-.98-1.44-.98-2.35V12.33c0-.92.33-1.7.98-2.35s1.44-.98,2.35-.98h26.67c.92,0,1.7.33,2.35.98s.98,1.44.98,2.35v18.33c0,.92-.33,1.7-.98,2.35-.65.65-1.44.98-2.35.98h-5l1.67,1.67v3.33H14Zm-3.89-7.95h27.78V11.95H10.11v19.1Z"/><path class="cls-1" d="m25.32,27.87v-2.07h-2.59v-6.9h-1.55v2.07h-4.83v-5.52h4.83v2.29h4.14v-2.29h4.83v5.52h-4.83v-2.07h-1.38v5.74h1.38v-2.29h4.83v5.52h-4.83Zm1.21-8.13h2.34v-3.12h-2.34v3.12Zm-.01,6.99h2.43v-3.24h-2.43v3.24Zm-8.91-6.96h2.33v-3.11h-2.33v3.11Z"/></svg>