<?xml version="1.0" encoding="utf-8"?>
<!-- Generator: Adobe Illustrator 27.3.1, SVG Export Plug-In . SVG Version: 6.00 Build 0)  -->
<svg version="1.1" id="Layer_1" xmlns="http://www.w3.org/2000/svg" xmlns:xlink="http://www.w3.org/1999/xlink" x="0px" y="0px" height="48px"  width="48px"
	 viewBox="0 0 48 48" style="enable-background:new 0 0 48 48;" xml:space="preserve">
<style type="text/css">
	.st0{fill:none;stroke:#ffffff;stroke-width:3;stroke-linecap:round;stroke-linejoin:round;stroke-miterlimit:10;}
</style>
<g>
	<g>
		<path fill="#ffffff" d="M6.6,42.2c-0.8,0-1.5-0.7-1.5-1.5V6.3c0-0.8,0.7-1.5,1.5-1.5h34.5c0.8,0,1.5,0.7,1.5,1.5v16h3v-16c0-2.5-2-4.5-4.5-4.5
			H6.6c-2.5,0-4.5,2-4.5,4.5v34.5c0,2.5,2,4.5,4.5,4.5h16.3v-3H6.6z"/>
	</g>
</g>
<g>
	<path fill="#ffffff" d="M41.4,45.2H29.5c-2.5,0-4.5-2-4.5-4.5v-12c0-2.5,2-4.5,4.5-4.5h11.9c2.5,0,4.5,2,4.5,4.5v12C45.9,43.2,43.8,45.2,41.4,45.2
		z M29.5,27.2c-0.8,0-1.5,0.7-1.5,1.5v12c0,0.8,0.7,1.5,1.5,1.5h11.9c0.8,0,1.5-0.7,1.5-1.5v-12c0-0.8-0.7-1.5-1.5-1.5H29.5z"/>
</g>
<g>
	<circle fill="#ffffff" cx="32.2" cy="31.3" r="2.2"/>
</g>
<g>
	<path fill="#ffffff" d="M40.6,41c-0.3,0-0.5-0.1-0.7-0.3L36.2,37l-4.3,3.5c-0.4,0.3-1.1,0.3-1.4-0.2c-0.3-0.4-0.3-1.1,0.2-1.4l5-4.1
		c0.4-0.3,1-0.3,1.3,0.1l4.4,4.4c0.4,0.4,0.4,1,0,1.4C41.1,40.9,40.9,41,40.6,41z"/>
</g>
<line class="st0" x1="9" y1="11.2" x2="39" y2="11.2"/>
<line class="st0" x1="9" y1="18.3" x2="39" y2="18.3"/>
<line class="st0" x1="9" y1="25.6" x2="21.8" y2="25.6"/>
<line class="st0" x1="9" y1="32.7" x2="21.8" y2="32.7"/>
</svg>