<?xml version="1.0" encoding="UTF-8"?><svg id="Layer_1" xmlns="http://www.w3.org/2000/svg" viewBox="0 0 48 48"><defs><style>.cls-1{fill:#A8A8A8;}.cls-1,.cls-2{stroke-width:0px;}.cls-2{fill:#fff;}</style></defs><rect class="cls-2" width="48" height="48"/><circle class="cls-1" cx="29.9" cy="29.54" r="1.52"/><path class="cls-1" d="m35.76,36.31c-.18,0-.36-.07-.5-.21l-2.6-2.6-3.03,2.45c-.3.24-.74.2-.98-.11-.24-.3-.2-.74.11-.98l3.52-2.85c.28-.22.68-.2.93.05l3.05,3.05c.27.27.27.72,0,.99-.14.14-.32.21-.5.21Z"/><rect class="cls-1" x="12.68" y="14.54" width="22.5" height="1.73" rx=".87" ry=".87"/><rect class="cls-1" x="12.68" y="20.1" width="22.5" height="1.73" rx=".87" ry=".87"/><rect class="cls-1" x="12.68" y="25.62" width="10.54" height="1.73" rx=".87" ry=".87"/><rect class="cls-1" x="12.68" y="31.12" width="10.54" height="1.73" rx=".87" ry=".87"/><path class="cls-1" d="m36.8,39.19h-9.68c-1.29,0-2.33-1.05-2.33-2.33v-9.68c0-1.29,1.05-2.33,2.33-2.33h9.68c1.29,0,2.33,1.05,2.33,2.33v9.68c0,1.29-1.05,2.33-2.33,2.33Zm-9.68-12.79c-.43,0-.78.35-.78.78v9.68c0,.43.35.78.78.78h9.68c.43,0,.78-.35.78-.78v-9.68c0-.43-.35-.78-.78-.78h-9.68Z"/><path class="cls-1" d="m11.46,37.64c-.43,0-.78-.35-.78-.78V11.53c0-.43.35-.78.78-.78h25.33c.43,0,.78.35.78.78v10.99h1.56v-10.99c0-1.29-1.05-2.33-2.33-2.33H11.46c-1.29,0-2.33,1.05-2.33,2.33v25.33c0,1.29,1.05,2.33,2.33,2.33h10.59v-1.56h-10.59Z"/></svg>