<?xml version="1.0" encoding="utf-8"?>
<!-- Generator: Adobe Illustrator 26.0.3, SVG Export Plug-In . SVG Version: 6.00 Build 0)  -->
<svg version="1.1" id="Layer_1" xmlns="http://www.w3.org/2000/svg" xmlns:xlink="http://www.w3.org/1999/xlink" x="0px" y="0px"
	 viewBox="0 0 375 254" style="enable-background:new 0 0 375 254;" xml:space="preserve">
<style type="text/css">
	.st0{clip-path:url(#SVGID_00000183235833704320520630000010419731738871842966_);fill:#5D17EB;}
	.st1{fill:#FFFFFF;}
</style>
<g>
	<defs>
		<rect id="SVGID_1_" x="0" width="375" height="254"/>
	</defs>
	<use xlink:href="#SVGID_1_"  style="overflow:visible;fill-rule:evenodd;clip-rule:evenodd;fill:#5D17EB;"/>
	<clipPath id="SVGID_00000055704181115170087690000001207270766333111176_">
		<use xlink:href="#SVGID_1_"  style="overflow:visible;"/>
	</clipPath>
	
		<rect x="0" style="clip-path:url(#SVGID_00000055704181115170087690000001207270766333111176_);fill:#5D17EB;" width="375" height="254"/>
</g>
<g>
	<g>
		<path class="st1" d="M190.99,104.99l-60.94-27.67c-1.84-0.83-4.2-0.92-6.17-0.25c-1.97,0.69-3.19,2.05-3.19,3.53v55.33
			c0,1.48,1.22,2.82,3.19,3.51c0.88,0.32,1.84,0.46,2.79,0.46c1.17,0,2.37-0.23,3.38-0.69l60.94-27.68
			c1.62-0.74,2.61-1.96,2.61-3.26C193.59,106.94,192.64,105.73,190.99,104.99 M132.68,128.38V88.13l44.34,20.12L132.68,128.38z"/>
		<path class="st1" d="M334.62,69.75c-1.73-0.74-3.91-0.83-5.77-0.25l-62.57,19.38V70.11c0-12.06-14.85-21.9-33.08-21.9H70.7
			c-18.26,0-33.08,9.84-33.08,21.9v76.3c0,12.08,14.82,21.9,33.08,21.9h162.5c18.26,0,33.11-9.82,33.11-21.9v-18.8l62.54,19.41
			c0.82,0.25,1.68,0.37,2.55,0.37c1.12,0,2.24-0.21,3.22-0.62c1.7-0.72,2.77-1.99,2.77-3.35V73.1
			C337.38,71.75,336.32,70.48,334.62,69.75 M254.27,146.41c0,7.71-9.45,13.95-21.08,13.95H70.7c-11.63,0-21.1-6.26-21.1-13.95v-76.3
			c0-7.69,9.47-13.95,21.1-13.95h162.5c11.63,0,21.1,6.26,21.1,13.95v51.24L254.27,146.41z M325.38,137.17l-59.11-18.34V97.67
			l59.11-18.32V137.17z"/>
	</g>
	<g>
		<path class="st1" d="M131.5,213.78l18.29,0.01c1.03,0,2.06-0.1,3.07-0.3s2-0.5,2.95-0.9c0.96-0.4,1.86-0.88,2.72-1.45
			c0.86-0.57,1.66-1.23,2.39-1.95c1.21-1.2,2.2-2.57,2.97-4.09c1.11-2.21,1.66-4.55,1.65-7.02c0-2.11-0.4-4.14-1.22-6.09h-6.25
			c-0.34,0-0.69,0.03-1.03,0.09c0.21,0.26,0.41,0.52,0.6,0.8c0.18,0.28,0.35,0.56,0.51,0.86c0.15,0.3,0.29,0.6,0.41,0.91
			c0.12,0.31,0.23,0.63,0.31,0.95c0.09,0.32,0.16,0.65,0.21,0.98c0.05,0.33,0.09,0.66,0.11,0.99c0.02,0.33,0.02,0.67,0,1
			c-0.02,0.33-0.05,0.66-0.11,0.99c-0.05,0.33-0.12,0.66-0.21,0.98c-0.09,0.32-0.19,0.64-0.31,0.95c-0.12,0.31-0.26,0.61-0.41,0.91
			c-0.15,0.3-0.32,0.58-0.51,0.86c-0.18,0.28-0.38,0.55-0.59,0.8c-0.21,0.26-0.44,0.5-0.68,0.74c-0.24,0.23-0.49,0.45-0.75,0.66
			c-0.26,0.21-0.53,0.4-0.82,0.58c-0.75,0.48-1.55,0.84-2.4,1.09s-1.72,0.37-2.61,0.37l-18.3-0.03c-1.25,0-2.45-0.24-3.6-0.71
			c-0.5-0.21-0.98-0.45-1.44-0.74c-0.46-0.29-0.89-0.61-1.29-0.98c-0.4-0.36-0.77-0.76-1.1-1.18c-0.33-0.43-0.63-0.88-0.88-1.35
			c-0.26-0.48-0.47-0.97-0.64-1.48c-0.17-0.51-0.29-1.04-0.37-1.57c-0.08-0.53-0.11-1.07-0.1-1.61s0.07-1.08,0.18-1.61
			c0.11-0.53,0.26-1.05,0.45-1.55c0.19-0.5,0.43-0.99,0.71-1.45c0.28-0.46,0.59-0.9,0.95-1.31c0.35-0.41,0.74-0.79,1.16-1.13
			c0.42-0.34,0.86-0.65,1.33-0.91c0.47-0.27,0.96-0.49,1.47-0.67c0.51-0.18,1.03-0.32,1.56-0.41c0.53-0.09,1.07-0.14,1.61-0.14
			l9.98,0.01c0.72-1.26,1.57-2.42,2.55-3.49c0.98-1.06,2.07-2,3.27-2.82l-15.8-0.01c-0.51,0.01-1.01,0.05-1.51,0.12
			c-0.5,0.06-1,0.15-1.49,0.26s-0.98,0.25-1.46,0.4c-0.48,0.16-0.95,0.34-1.42,0.54c-0.46,0.2-0.92,0.43-1.36,0.68
			s-0.87,0.51-1.29,0.8c-0.42,0.29-0.82,0.6-1.2,0.92c-0.39,0.33-0.76,0.67-1.11,1.03c-0.35,0.36-0.69,0.74-1,1.14
			c-0.32,0.39-0.61,0.8-0.89,1.23c-0.28,0.42-0.53,0.86-0.77,1.31c-0.23,0.45-0.45,0.91-0.64,1.38c-0.19,0.47-0.36,0.95-0.5,1.43
			s-0.26,0.98-0.36,1.47c-0.1,0.5-0.17,1-0.22,1.5c-0.05,0.5-0.07,1.01-0.07,1.51c0,0.51,0.02,1.01,0.07,1.51
			c0.05,0.5,0.12,1,0.22,1.5c0.1,0.5,0.22,0.99,0.36,1.47c0.14,0.48,0.31,0.96,0.5,1.43s0.4,0.93,0.64,1.38
			c0.23,0.45,0.49,0.88,0.77,1.31c0.28,0.42,0.57,0.83,0.89,1.23s0.65,0.77,1,1.14c0.35,0.36,0.72,0.71,1.11,1.03
			c0.39,0.33,0.79,0.63,1.2,0.92c0.42,0.29,0.84,0.56,1.29,0.8c0.44,0.25,0.89,0.47,1.36,0.68s0.94,0.38,1.42,0.54
			c0.48,0.16,0.97,0.29,1.46,0.4c0.49,0.11,0.99,0.2,1.49,0.26C130.49,213.73,131,213.77,131.5,213.78z"/>
		<path class="st1" d="M187.46,209.19c0.55-0.55,1.05-1.13,1.51-1.75s0.87-1.27,1.23-1.96c0.36-0.68,0.67-1.39,0.93-2.11
			c0.26-0.73,0.46-1.47,0.61-2.23c0.15-0.76,0.24-1.52,0.28-2.29s0.02-1.54-0.06-2.31c-0.08-0.77-0.21-1.53-0.4-2.28
			c-0.19-0.75-0.43-1.48-0.73-2.2c-0.3-0.71-0.64-1.4-1.04-2.07c-0.4-0.66-0.84-1.29-1.33-1.89c-0.49-0.6-1.02-1.16-1.59-1.68
			c-0.57-0.52-1.18-0.99-1.82-1.42s-1.31-0.81-2.01-1.14c-0.7-0.33-1.42-0.61-2.16-0.83c-0.74-0.23-1.49-0.4-2.26-0.51
			c-0.76-0.11-1.53-0.17-2.31-0.17l-18.28-0.02c-1.27-0.01-2.53,0.13-3.77,0.42c-0.55,0.13-1.09,0.3-1.63,0.49
			c-0.53,0.19-1.05,0.41-1.56,0.66c-0.51,0.25-1,0.53-1.48,0.83c-0.48,0.3-0.94,0.63-1.38,0.98c-0.44,0.35-0.87,0.73-1.27,1.13
			c-0.4,0.4-0.78,0.82-1.14,1.26c-0.36,0.44-0.69,0.9-1,1.37c-0.31,0.48-0.59,0.97-0.85,1.47c-0.26,0.51-0.48,1.02-0.68,1.56
			c-0.2,0.53-0.37,1.07-0.51,1.62c-0.14,0.55-0.25,1.1-0.33,1.67s-0.13,1.13-0.15,1.69s-0.01,1.13,0.03,1.7s0.11,1.13,0.21,1.69
			c0.1,0.56,0.23,1.11,0.39,1.65c0.16,0.54,0.35,1.08,0.57,1.6l6.26,0.01c0.34-0.01,0.68-0.04,1.02-0.09
			c-0.21-0.26-0.41-0.52-0.59-0.8c-0.18-0.28-0.35-0.56-0.5-0.85c-0.15-0.29-0.29-0.59-0.41-0.9c-0.12-0.31-0.22-0.62-0.31-0.94
			c-0.09-0.32-0.16-0.64-0.21-0.97c-0.05-0.33-0.09-0.65-0.11-0.98c-0.02-0.33-0.02-0.66,0-0.99s0.05-0.66,0.1-0.98
			s0.12-0.65,0.2-0.97c0.08-0.32,0.19-0.63,0.3-0.94c0.12-0.31,0.25-0.61,0.4-0.9s0.31-0.58,0.49-0.86s0.37-0.54,0.58-0.8
			c0.21-0.26,0.43-0.5,0.66-0.73c0.23-0.23,0.48-0.45,0.74-0.66c0.26-0.21,0.52-0.4,0.8-0.58c0.08-0.06,0.16-0.11,0.25-0.15
			c0.73-0.45,1.51-0.79,2.34-1.02c0.83-0.23,1.67-0.35,2.53-0.35l18.27,0.01c0.62,0,1.23,0.06,1.84,0.17
			c0.61,0.12,1.2,0.3,1.77,0.53c0.57,0.24,1.11,0.53,1.63,0.87s0.99,0.74,1.43,1.17c0.33,0.33,0.63,0.68,0.91,1.05
			c0.28,0.37,0.52,0.76,0.74,1.17s0.41,0.83,0.56,1.27c0.16,0.44,0.28,0.88,0.37,1.34c0.09,0.45,0.15,0.91,0.17,1.37
			c0.02,0.46,0.01,0.92-0.03,1.38c-0.05,0.46-0.12,0.92-0.24,1.36c-0.11,0.45-0.26,0.89-0.44,1.31c-0.18,0.43-0.39,0.84-0.62,1.24
			c-0.24,0.4-0.5,0.77-0.8,1.13c-0.29,0.36-0.61,0.69-0.96,1c-0.34,0.31-0.71,0.59-1.09,0.85s-0.79,0.48-1.21,0.68
			c-0.42,0.2-0.85,0.36-1.29,0.5c-0.44,0.13-0.89,0.23-1.35,0.3c-0.46,0.07-0.92,0.1-1.38,0.1l-9.96,0
			c-0.85,1.49-1.88,2.85-3.09,4.07c-0.85,0.83-1.77,1.58-2.75,2.26l15.81-0.01c1.03,0,2.06-0.09,3.07-0.29c1.01-0.2,2-0.5,2.95-0.89
			s1.86-0.88,2.72-1.45C185.94,210.57,186.73,209.92,187.46,209.19z"/>
	</g>
</g>
</svg>
