<svg xmlns="http://www.w3.org/2000/svg" xmlns:xlink="http://www.w3.org/1999/xlink" width="254" zoomAndPan="magnify" viewBox="0 0 190.5 90.749999" height="121" preserveAspectRatio="xMidYMid meet" version="1.0"><defs><clipPath id="4b7a9793c3"><path d="M 64.0625 3.367188 L 126.304688 3.367188 L 126.304688 87.355469 L 64.0625 87.355469 Z M 64.0625 3.367188 " clip-rule="nonzero"/></clipPath><clipPath id="120af559b6"><path d="M 104 3.367188 L 126.304688 3.367188 L 126.304688 26 L 104 26 Z M 104 3.367188 " clip-rule="nonzero"/></clipPath><clipPath id="89dbe48117"><path d="M 76 49 L 98 49 L 98 71 L 76 71 Z M 76 49 " clip-rule="nonzero"/></clipPath><clipPath id="f20ac24b6e"><path d="M 73.65625 39.824219 L 113.183594 35.671875 L 116.472656 66.996094 L 76.945312 71.148438 Z M 73.65625 39.824219 " clip-rule="nonzero"/></clipPath><clipPath id="1ddbcdcf53"><path d="M 73.65625 39.824219 L 113.183594 35.671875 L 116.472656 66.996094 L 76.945312 71.148438 Z M 73.65625 39.824219 " clip-rule="nonzero"/></clipPath><clipPath id="653f3b320f"><path d="M 93 36 L 114 36 L 114 58 L 93 58 Z M 93 36 " clip-rule="nonzero"/></clipPath><clipPath id="2b290dbe63"><path d="M 73.65625 39.824219 L 113.183594 35.671875 L 116.472656 66.996094 L 76.945312 71.148438 Z M 73.65625 39.824219 " clip-rule="nonzero"/></clipPath><clipPath id="bf98b7696e"><path d="M 73.65625 39.824219 L 113.183594 35.671875 L 116.472656 66.996094 L 76.945312 71.148438 Z M 73.65625 39.824219 " clip-rule="nonzero"/></clipPath><clipPath id="af17f4aac4"><path d="M 87 44 L 106 44 L 106 60 L 87 60 Z M 87 44 " clip-rule="nonzero"/></clipPath><clipPath id="591db3d42d"><path d="M 73.65625 39.824219 L 113.183594 35.671875 L 116.472656 66.996094 L 76.945312 71.148438 Z M 73.65625 39.824219 " clip-rule="nonzero"/></clipPath><clipPath id="02c501f57b"><path d="M 73.65625 39.824219 L 113.183594 35.671875 L 116.472656 66.996094 L 76.945312 71.148438 Z M 73.65625 39.824219 " clip-rule="nonzero"/></clipPath></defs><g clip-path="url(#4b7a9793c3)"><path fill="#5e17eb" d="M 126.304688 25.660156 L 126.304688 83.003906 C 126.304688 83.289062 126.277344 83.570312 126.222656 83.847656 C 126.167969 84.125 126.085938 84.394531 125.976562 84.65625 C 125.867188 84.917969 125.734375 85.164062 125.578125 85.402344 C 125.421875 85.636719 125.242188 85.855469 125.042969 86.054688 C 124.84375 86.253906 124.625 86.433594 124.390625 86.589844 C 124.15625 86.746094 123.910156 86.878906 123.648438 86.988281 C 123.386719 87.097656 123.117188 87.179688 122.839844 87.234375 C 122.5625 87.289062 122.285156 87.316406 122 87.316406 L 68.367188 87.316406 C 68.082031 87.316406 67.804688 87.289062 67.527344 87.234375 C 67.25 87.179688 66.980469 87.097656 66.71875 86.988281 C 66.457031 86.878906 66.210938 86.746094 65.976562 86.589844 C 65.738281 86.433594 65.523438 86.253906 65.324219 86.054688 C 65.125 85.855469 64.945312 85.636719 64.789062 85.402344 C 64.628906 85.164062 64.5 84.917969 64.390625 84.65625 C 64.28125 84.394531 64.199219 84.125 64.144531 83.847656 C 64.089844 83.570312 64.0625 83.289062 64.0625 83.003906 L 64.0625 7.714844 C 64.0625 7.433594 64.089844 7.152344 64.144531 6.875 C 64.199219 6.597656 64.28125 6.328125 64.390625 6.066406 C 64.5 5.804688 64.628906 5.554688 64.789062 5.320312 C 64.945312 5.085938 65.125 4.867188 65.324219 4.667969 C 65.523438 4.464844 65.738281 4.289062 65.976562 4.128906 C 66.210938 3.972656 66.457031 3.839844 66.71875 3.730469 C 66.980469 3.625 67.25 3.542969 67.527344 3.484375 C 67.804688 3.429688 68.082031 3.402344 68.367188 3.402344 L 104.089844 3.402344 Z M 126.304688 25.660156 " fill-opacity="1" fill-rule="nonzero"/></g><g clip-path="url(#120af559b6)"><path fill="#8c52ff" d="M 126.304688 25.660156 L 105.894531 25.660156 C 105.652344 25.660156 105.425781 25.617188 105.203125 25.523438 C 104.980469 25.433594 104.785156 25.300781 104.617188 25.132812 C 104.449219 24.960938 104.316406 24.765625 104.226562 24.546875 C 104.132812 24.324219 104.089844 24.09375 104.089844 23.851562 L 104.089844 3.402344 Z M 126.304688 25.660156 " fill-opacity="1" fill-rule="nonzero"/></g><path fill="#5e17eb" d="M 82.050781 47.882812 L 75.972656 47.882812 L 75.972656 63.320312 L 79.726562 63.320312 L 79.726562 57.777344 L 82.050781 57.777344 C 85.980469 57.777344 87.714844 55.402344 87.714844 52.851562 C 87.714844 50.015625 85.828125 47.882812 82.050781 47.882812 Z M 81.765625 54.789062 L 79.726562 54.789062 L 79.726562 50.917969 L 81.765625 50.917969 C 83.257812 50.917969 83.894531 51.664062 83.894531 52.851562 C 83.894531 54.039062 83.257812 54.789062 81.765625 54.789062 Z M 81.765625 54.789062 " fill-opacity="1" fill-rule="nonzero"/><path fill="#5e17eb" d="M 95.4375 47.882812 L 89.667969 47.882812 L 89.667969 63.320312 L 95.4375 63.320312 C 100.351562 63.320312 103.511719 60.175781 103.511719 55.601562 C 103.511719 51.007812 100.351562 47.882812 95.4375 47.882812 Z M 95.195312 60.066406 L 93.417969 60.066406 L 93.417969 51.09375 L 95.195312 51.09375 C 98.027344 51.09375 99.695312 52.765625 99.695312 55.601562 C 99.695312 58.4375 98.027344 60.066406 95.195312 60.066406 Z M 95.195312 60.066406 " fill-opacity="1" fill-rule="nonzero"/><path fill="#5e17eb" d="M 115.648438 50.898438 L 115.648438 47.882812 L 105.621094 47.882812 L 105.621094 63.320312 L 109.371094 63.320312 L 109.371094 57.074219 L 114.066406 57.074219 L 114.066406 54.152344 L 109.371094 54.152344 L 109.371094 50.898438 Z M 115.648438 50.898438 " fill-opacity="1" fill-rule="nonzero"/><g clip-path="url(#89dbe48117)"><g clip-path="url(#f20ac24b6e)"><g clip-path="url(#1ddbcdcf53)"><path fill="#ffffff" d="M 85.554688 70.242188 C 84.953125 70.304688 84.34375 70.304688 83.726562 70.234375 C 81.511719 69.980469 79.523438 68.875 78.132812 67.121094 C 76.742188 65.363281 76.113281 63.171875 76.363281 60.945312 C 76.613281 58.714844 77.710938 56.71875 79.453125 55.324219 L 85.996094 50.085938 C 86.5625 49.632812 87.386719 49.726562 87.835938 50.296875 C 88.289062 50.867188 88.195312 51.695312 87.628906 52.148438 L 81.089844 57.386719 C 78.621094 59.363281 78.214844 62.992188 80.183594 65.476562 C 82.152344 67.960938 85.765625 68.375 88.234375 66.398438 L 95.011719 60.96875 C 95.574219 60.515625 96.402344 60.613281 96.851562 61.179688 C 97.304688 61.75 97.210938 62.578125 96.644531 63.035156 L 89.867188 68.460938 C 88.609375 69.46875 87.121094 70.078125 85.554688 70.242188 Z M 85.554688 70.242188 " fill-opacity="1" fill-rule="nonzero"/></g></g></g><g clip-path="url(#653f3b320f)"><g clip-path="url(#2b290dbe63)"><g clip-path="url(#bf98b7696e)"><path fill="#ffffff" d="M 103.25 57.480469 C 102.816406 57.527344 102.375 57.355469 102.085938 56.992188 C 101.632812 56.421875 101.726562 55.59375 102.292969 55.140625 L 109.070312 49.710938 C 111.539062 47.734375 111.945312 44.105469 109.976562 41.621094 C 108.003906 39.136719 104.394531 38.722656 101.925781 40.699219 L 95.386719 45.9375 C 94.820312 46.390625 93.996094 46.296875 93.542969 45.726562 C 93.089844 45.15625 93.183594 44.328125 93.75 43.875 L 100.289062 38.636719 C 102.035156 37.242188 104.214844 36.613281 106.429688 36.867188 C 108.648438 37.117188 110.632812 38.222656 112.023438 39.980469 C 113.414062 41.734375 114.042969 43.925781 113.792969 46.15625 C 113.546875 48.382812 112.449219 50.378906 110.703125 51.773438 L 103.925781 57.203125 C 103.722656 57.363281 103.488281 57.457031 103.25 57.480469 Z M 103.25 57.480469 " fill-opacity="1" fill-rule="nonzero"/></g></g></g><g clip-path="url(#af17f4aac4)"><g clip-path="url(#591db3d42d)"><g clip-path="url(#02c501f57b)"><path fill="#ffffff" d="M 88.921875 59.902344 C 88.492188 59.949219 88.046875 59.777344 87.757812 59.414062 C 87.304688 58.84375 87.398438 58.015625 87.964844 57.5625 L 103.714844 44.949219 C 104.28125 44.496094 105.105469 44.589844 105.554688 45.160156 C 106.007812 45.730469 105.914062 46.558594 105.347656 47.011719 L 89.601562 59.625 C 89.398438 59.785156 89.160156 59.878906 88.921875 59.902344 Z M 88.921875 59.902344 " fill-opacity="1" fill-rule="nonzero"/></g></g></g></svg>