<?xml version="1.0" encoding="UTF-8"?><svg id="Layer_1" xmlns="http://www.w3.org/2000/svg" viewBox="0 0 22.9 11.45"><defs><style>.cls-1{fill:#999;stroke-width:0px;}</style></defs><path class="cls-1" d="m10.31,11.45h-4.58c-1.58,0-2.93-.56-4.05-1.67S0,7.31,0,5.73.56,2.79,1.67,1.67,4.14,0,5.73,0h4.58v2.29h-4.58c-.95,0-1.77.33-2.43,1s-1,1.48-1,2.43.33,1.77,1,2.43,1.48,1,2.43,1h4.58v2.29Zm-3.44-4.58v-2.29h9.16v2.29H6.87Zm5.73,4.58v-2.29h4.58c.95,0,1.77-.33,2.43-1s1-1.48,1-2.43-.33-1.77-1-2.43-1.48-1-2.43-1h-4.58V0h4.58c1.58,0,2.93.56,4.05,1.67s1.67,2.47,1.67,4.05-.56,2.93-1.67,4.05-2.47,1.67-4.05,1.67h-4.58Z"/></svg>