<svg width="1062" height="870" viewBox="0 0 1062 870" fill="none" xmlns="http://www.w3.org/2000/svg">
<g id="No Results">
<g id="circle">
<path id="Stroke 1" d="M34.8146 399V408" stroke="#D2D8DF" stroke-width="2.921" stroke-linecap="round"/>
<g id="Group 8">
<path id="Stroke 2" d="M14.6006 403.876L21.9549 411.447" stroke="#D2D8DF" stroke-width="2.921" stroke-linecap="round"/>
<path id="Stroke 4" d="M6 424.029H16.3989" stroke="#D2D8DF" stroke-width="2.921" stroke-linecap="round"/>
<path id="Stroke 6" d="M13.7596 444.541L21.1138 436.971" stroke="#D2D8DF" stroke-width="2.921" stroke-linecap="round"/>
</g>
<path id="Stroke 9" d="M34.8146 447V438" stroke="#D2D8DF" stroke-width="2.921" stroke-linecap="round"/>
<path id="Stroke 10" d="M49.8146 441L43.8146 435" stroke="#D2D8DF" stroke-width="2.921" stroke-linecap="round"/>
<path id="Stroke 11" d="M61.8146 426H52.8146" stroke="#D2D8DF" stroke-width="2.921" stroke-linecap="round"/>
<path id="Stroke 12" d="M55.8146 405L49.8146 411" stroke="#D2D8DF" stroke-width="2.921" stroke-linecap="round"/>
<path id="Stroke 13" d="M517.815 6V12" stroke="#D2D8DF" stroke-width="2.921" stroke-linecap="round"/>
<path id="Stroke 15" d="M499.815 24H505.815" stroke="#D2D8DF" stroke-width="2.921" stroke-linecap="round"/>
<path id="Stroke 16" d="M517.815 42V36" stroke="#D2D8DF" stroke-width="2.921" stroke-linecap="round"/>
<path id="Stroke 17" d="M532.815 24H526.815" stroke="#D2D8DF" stroke-width="2.921" stroke-linecap="round"/>
<path id="Stroke 18" d="M169.815 258V267" stroke="#D2D8DF" stroke-width="2.921" stroke-linecap="round"/>
<path id="Stroke 19" d="M142.815 285H151.815" stroke="#D2D8DF" stroke-width="2.921" stroke-linecap="round"/>
<path id="Stroke 20" d="M169.815 309V300" stroke="#D2D8DF" stroke-width="2.921" stroke-linecap="round"/>
<path id="Stroke 21" d="M193.815 285H184.815" stroke="#D2D8DF" stroke-width="2.921" stroke-linecap="round"/>
<g id="Group 42">
<path id="Stroke 22" d="M815.576 585.116C822.746 585.116 828.56 590.932 828.56 598.103C828.56 605.277 822.746 611.091 815.576 611.091C808.407 611.091 802.592 605.277 802.592 598.103" stroke="#D2D8DF" stroke-width="2.921" stroke-linecap="round"/>
<path id="Fill 26" fill-rule="evenodd" clip-rule="evenodd" d="M875 467.29C882.709 464.885 894.527 455.456 897.262 445.312C899.743 454.279 910.142 464.885 919.524 465.687C908.962 469.427 898.864 480.537 897.262 489.265C896.172 480.369 882.205 468.586 875 467.29Z" fill="#EBECEE"/>
<path id="Fill 28" fill-rule="evenodd" clip-rule="evenodd" d="M83.6331 581.115C87.4891 579.913 93.3953 575.2 94.763 570.128C96.0033 574.609 101.201 579.913 105.893 580.316C100.613 582.183 95.5653 587.739 94.763 592.103C94.218 587.655 87.2344 581.763 83.6331 581.115Z" fill="#EBECEE"/>
<path id="Fill 30" fill-rule="evenodd" clip-rule="evenodd" d="M155.189 163.791C155.189 169.355 150.681 173.862 145.122 173.862C139.559 173.862 135.054 169.355 135.054 163.791C135.054 158.23 139.559 153.721 145.122 153.721C150.681 153.721 155.189 158.23 155.189 163.791Z" fill="#D1D8DF"/>
<path id="Fill 32" fill-rule="evenodd" clip-rule="evenodd" d="M827.472 190.832C827.472 200.128 819.935 207.663 810.644 207.663C801.348 207.663 793.815 200.128 793.815 190.832C793.815 181.536 801.348 174 810.644 174C819.935 174 827.472 181.536 827.472 190.832Z" fill="#EBECEE"/>
<path id="Fill 34" fill-rule="evenodd" clip-rule="evenodd" d="M1060.56 145.228C1060.56 152.603 1054.58 158.58 1047.21 158.58C1039.84 158.58 1033.86 152.603 1033.86 145.228C1033.86 137.853 1039.84 131.877 1047.21 131.877C1054.58 131.877 1060.56 137.853 1060.56 145.228Z" fill="#EBECEE"/>
<path id="Stroke 36" fill-rule="evenodd" clip-rule="evenodd" d="M343.347 768.802C343.347 773.452 339.58 777.22 334.932 777.22C330.287 777.22 326.52 773.452 326.52 768.802C326.52 764.153 330.287 760.385 334.932 760.385C339.58 760.385 343.347 764.153 343.347 768.802Z" stroke="#D2D8DF" stroke-width="2.921" stroke-linecap="round"/>
<path id="Stroke 38" fill-rule="evenodd" clip-rule="evenodd" d="M338.34 99.0952C338.34 104.659 333.833 109.166 328.273 109.166C322.713 109.166 318.205 104.659 318.205 99.0952C318.205 93.5339 322.713 89.0248 328.273 89.0248C333.833 89.0248 338.34 93.5339 338.34 99.0952Z" stroke="#D2D8DF" stroke-width="2.921" stroke-linecap="round"/>
<path id="Stroke 40" fill-rule="evenodd" clip-rule="evenodd" d="M595.151 862.008C588.718 864.456 581.518 861.223 579.07 854.791C576.623 848.356 579.852 841.151 586.288 838.705C592.719 836.257 599.919 839.488 602.367 845.923C604.817 852.358 601.585 859.56 595.151 862.008Z" stroke="#D2D8DF" stroke-width="2.921" stroke-linecap="round"/>
</g>
</g>
<g id="search">
<g id="documents">
<path id="Fill 1" fill-rule="evenodd" clip-rule="evenodd" d="M591.318 624H345.304C327.988 624 313.815 609.784 313.815 592.41V241.582C313.815 224.209 327.988 210 345.304 210H591.318C608.641 210 622.815 224.209 622.815 241.582V592.41C622.815 609.784 608.641 624 591.318 624Z" fill="#E0E2EE"/>
<path id="Fill 3" fill-rule="evenodd" clip-rule="evenodd" d="M570.318 639H324.304C306.988 639 292.815 624.784 292.815 607.41V256.582C292.815 239.209 306.988 225 324.304 225H570.318C587.641 225 601.815 239.209 601.815 256.582V607.41C601.815 624.784 587.641 639 570.318 639Z" fill="#E8EBF2"/>
<path id="Fill 5" fill-rule="evenodd" clip-rule="evenodd" d="M549.89 650.842H303.368C286.016 650.842 271.813 636.685 271.813 619.383V270.008C271.813 252.706 286.016 238.556 303.368 238.556H549.89C567.249 238.556 581.452 252.706 581.452 270.008V619.383C581.452 636.685 567.249 650.842 549.89 650.842Z" fill="#D8DBEA"/>
<path id="Fill 8" fill-rule="evenodd" clip-rule="evenodd" d="M549.89 650.842H303.368C286.016 650.842 271.813 636.685 271.813 619.383V270.008C271.813 252.706 286.016 238.556 303.368 238.556H549.89C567.249 238.556 581.452 252.706 581.452 270.008V619.383C581.452 636.685 567.249 650.842 549.89 650.842Z" fill="#F1F2F7"/>
<path id="Fill 11" fill-rule="evenodd" clip-rule="evenodd" d="M514.358 345H332.271C327.071 345 322.815 340.951 322.815 336.003C322.815 331.049 327.071 327 332.271 327H514.358C519.558 327 523.815 331.049 523.815 336.003C523.815 340.951 519.558 345 514.358 345Z" fill="#E0E2EE"/>
<path id="Fill 13" fill-rule="evenodd" clip-rule="evenodd" d="M514.358 399H332.271C327.071 399 322.815 394.951 322.815 390.003C322.815 385.049 327.071 381 332.271 381H514.358C519.558 381 523.815 385.049 523.815 390.003C523.815 394.951 519.558 399 514.358 399Z" fill="#E0E2EE"/>
<path id="Fill 15" fill-rule="evenodd" clip-rule="evenodd" d="M514.358 453H332.271C327.071 453 322.815 448.951 322.815 444.003C322.815 439.056 327.071 435 332.271 435H514.358C519.558 435 523.815 439.056 523.815 444.003C523.815 448.951 519.558 453 514.358 453Z" fill="#E0E2EE"/>
<path id="Fill 17" fill-rule="evenodd" clip-rule="evenodd" d="M514.358 507H332.271C327.071 507 322.815 502.951 322.815 498.003C322.815 493.049 327.071 489 332.271 489H514.358C519.558 489 523.815 493.049 523.815 498.003C523.815 502.951 519.558 507 514.358 507Z" fill="#E0E2EE"/>
<path id="Fill 19" fill-rule="evenodd" clip-rule="evenodd" d="M427.318 561H332.312C327.089 561 322.815 556.951 322.815 552.003C322.815 547.049 327.089 543 332.312 543H427.318C432.54 543 436.815 547.049 436.815 552.003C436.815 556.951 432.54 561 427.318 561Z" fill="#E0E2EE"/>
</g>
<g id="search_2">
<path id="Fill 21" fill-rule="evenodd" clip-rule="evenodd" d="M619.079 491.21C582.669 527.614 526.302 531.721 485.38 503.615C480.15 499.958 475.172 495.851 470.53 491.21C468.141 488.829 465.888 486.371 463.766 483.783C459.521 478.615 455.803 473.104 452.757 467.409C447.389 457.791 443.74 447.585 441.747 437.036C435.319 403.952 444.931 368.342 470.53 342.755C496.191 317.091 531.807 307.542 564.896 313.908C575.439 315.962 585.655 319.61 595.274 324.916C600.977 328.03 606.413 331.748 611.59 335.992C614.17 338.106 616.629 340.366 619.011 342.755C623.66 347.396 627.829 352.366 631.417 357.602C659.536 398.51 655.421 454.875 619.079 491.21Z" fill="white" fill-opacity="0.1"/>
<path id="Fill 23" fill-rule="evenodd" clip-rule="evenodd" d="M608.891 484.04C571.011 521.926 509.624 521.919 471.737 484.04C433.9 446.202 433.9 384.808 471.787 346.928C509.624 309.091 571.011 309.091 608.849 346.928C646.729 384.808 646.729 446.202 608.891 484.04ZM628.331 327.467C579.709 278.844 500.919 278.844 452.297 327.467C403.682 376.082 403.64 454.921 452.255 503.543C496.506 547.781 565.866 551.771 614.65 515.449C619.415 511.896 624.004 507.914 628.381 503.543C632.751 499.166 636.733 494.577 640.279 489.813C676.601 441.021 672.576 371.711 628.331 327.467Z" fill="#E0E2EE"/>
<path id="Fill 25" fill-rule="evenodd" clip-rule="evenodd" d="M819.681 686.825L817.64 688.866C804.135 702.378 782.021 702.378 768.509 688.866L643.815 564.172L694.987 513L819.681 637.694C833.192 651.206 833.192 673.313 819.681 686.825Z" fill="url(#paint0_linear_0_3)"/>
<path id="Fill 27" fill-rule="evenodd" clip-rule="evenodd" d="M642.967 486L679.815 522.848L653.655 549L616.815 512.152C621.677 508.527 626.352 504.463 630.826 500.004C635.285 495.545 639.349 490.862 642.967 486Z" fill="#E0E2EE"/>
<path id="Fill 29" fill-rule="evenodd" clip-rule="evenodd" d="M817.815 636.161L766.968 687L757.815 677.839L808.654 627L817.815 636.161Z" fill="#EF545F"/>
<path id="Fill 31" fill-rule="evenodd" clip-rule="evenodd" d="M697.815 514.76L645.576 567L637.815 559.24L690.053 507L697.815 514.76Z" fill="url(#paint1_linear_0_3)"/>
<path id="Fill 33" fill-rule="evenodd" clip-rule="evenodd" d="M583.815 333.896L455.704 462C450.879 453.353 447.599 444.178 445.815 434.694L556.507 324C565.985 325.853 575.167 329.126 583.815 333.896Z" fill="white" fill-opacity="0.5"/>
<path id="Fill 35" fill-rule="evenodd" clip-rule="evenodd" d="M625.815 364.345L487.313 495C482.353 491.735 477.632 488.06 473.23 483.907C470.964 481.769 468.82 479.576 466.815 477.26L607.003 345C609.458 346.899 611.789 348.921 614.048 351.059C618.451 355.212 622.411 359.659 625.815 364.345Z" fill="white" fill-opacity="0.5"/>
</g>
</g>
</g>
<defs>
<linearGradient id="paint0_linear_0_3" x1="736.815" y1="420" x2="550.815" y2="606" gradientUnits="userSpaceOnUse">
<stop stop-color="#FF8960"/>
<stop offset="1" stop-color="#FF62A5"/>
</linearGradient>
<linearGradient id="paint1_linear_0_3" x1="667.815" y1="477" x2="607.815" y2="537" gradientUnits="userSpaceOnUse">
<stop stop-color="#FF404E"/>
<stop offset="1" stop-color="#FF62A5"/>
</linearGradient>
</defs>
</svg>
