<svg xmlns="http://www.w3.org/2000/svg" xmlns:xlink="http://www.w3.org/1999/xlink" width="48" zoomAndPan="magnify" viewBox="0 0 36 36.000001" height="48" preserveAspectRatio="xMidYMid meet" version="1.0"><defs><clipPath id="0a4b5af09e"><path d="M 7.613281 3.503906 L 28.046875 3.503906 L 28.046875 31.234375 L 7.613281 31.234375 Z M 7.613281 3.503906 " clip-rule="nonzero"/></clipPath></defs><g clip-path="url(#0a4b5af09e)"><path fill="#6619d3" d="M 17.996094 3.503906 C 16.289062 3.503906 14.882812 4.910156 14.882812 6.617188 L 10.734375 6.617188 C 9.027344 6.617188 7.621094 8.019531 7.621094 9.726562 L 7.621094 28.40625 C 7.621094 30.113281 9.027344 31.515625 10.734375 31.515625 L 25.257812 31.515625 C 26.964844 31.515625 28.371094 30.113281 28.371094 28.40625 L 28.371094 9.726562 C 28.371094 8.019531 26.964844 6.617188 25.257812 6.617188 L 21.109375 6.617188 C 21.109375 4.910156 19.703125 3.503906 17.996094 3.503906 Z M 17.996094 5.578125 C 18.582031 5.578125 19.035156 6.03125 19.035156 6.617188 C 19.035156 7.199219 18.582031 7.652344 17.996094 7.652344 C 17.410156 7.652344 16.957031 7.199219 16.957031 6.617188 C 16.957031 6.03125 17.410156 5.578125 17.996094 5.578125 Z M 10.734375 8.691406 L 12.808594 8.691406 C 12.808594 9.835938 13.738281 10.765625 14.882812 10.765625 L 21.109375 10.765625 C 22.253906 10.765625 23.183594 9.835938 23.183594 8.691406 L 25.257812 8.691406 C 25.84375 8.691406 26.296875 9.140625 26.296875 9.726562 L 26.296875 28.40625 C 26.296875 28.992188 25.84375 29.441406 25.257812 29.441406 L 10.734375 29.441406 C 10.148438 29.441406 9.695312 28.992188 9.695312 28.40625 L 9.695312 9.726562 C 9.695312 9.140625 10.148438 8.691406 10.734375 8.691406 Z M 21.097656 13.867188 C 20.886719 13.867188 20.695312 13.925781 20.519531 14.046875 C 20.34375 14.164062 20.21875 14.320312 20.136719 14.515625 C 20.058594 14.710938 20.039062 14.914062 20.082031 15.117188 C 20.125 15.324219 20.222656 15.503906 20.375 15.648438 L 20.679688 15.953125 L 20.375 16.257812 C 20.273438 16.355469 20.195312 16.464844 20.140625 16.59375 C 20.085938 16.722656 20.058594 16.855469 20.054688 16.996094 C 20.054688 17.136719 20.082031 17.269531 20.132812 17.398438 C 20.1875 17.527344 20.261719 17.640625 20.359375 17.738281 C 20.457031 17.839844 20.574219 17.914062 20.703125 17.96875 C 20.832031 18.019531 20.964844 18.046875 21.105469 18.042969 C 21.242188 18.042969 21.378906 18.015625 21.503906 17.957031 C 21.632812 17.902344 21.746094 17.824219 21.84375 17.726562 L 22.144531 17.421875 L 22.449219 17.726562 C 22.546875 17.824219 22.660156 17.902344 22.789062 17.957031 C 22.914062 18.015625 23.050781 18.042969 23.1875 18.042969 C 23.328125 18.046875 23.460938 18.019531 23.589844 17.96875 C 23.71875 17.914062 23.835938 17.839844 23.933594 17.738281 C 24.03125 17.640625 24.105469 17.527344 24.160156 17.398438 C 24.210938 17.269531 24.238281 17.136719 24.238281 16.996094 C 24.234375 16.855469 24.207031 16.722656 24.152344 16.59375 C 24.097656 16.464844 24.019531 16.355469 23.917969 16.257812 L 23.613281 15.953125 L 23.917969 15.648438 C 24.070312 15.5 24.167969 15.320312 24.210938 15.113281 C 24.253906 14.902344 24.234375 14.699219 24.148438 14.5 C 24.066406 14.304688 23.933594 14.148438 23.753906 14.03125 C 23.574219 13.917969 23.378906 13.863281 23.164062 13.867188 C 22.882812 13.875 22.644531 13.980469 22.449219 14.183594 L 22.144531 14.488281 L 21.84375 14.183594 C 21.640625 13.972656 21.390625 13.867188 21.097656 13.867188 Z M 12.808594 14.917969 C 12.667969 14.914062 12.535156 14.9375 12.40625 14.992188 C 12.277344 15.042969 12.164062 15.117188 12.066406 15.214844 C 11.964844 15.3125 11.890625 15.425781 11.835938 15.554688 C 11.78125 15.679688 11.753906 15.816406 11.753906 15.953125 C 11.753906 16.09375 11.78125 16.226562 11.835938 16.355469 C 11.890625 16.480469 11.964844 16.59375 12.066406 16.691406 C 12.164062 16.789062 12.277344 16.863281 12.40625 16.917969 C 12.535156 16.96875 12.667969 16.992188 12.808594 16.992188 L 16.957031 16.992188 C 17.097656 16.992188 17.230469 16.96875 17.359375 16.917969 C 17.488281 16.863281 17.601562 16.789062 17.703125 16.691406 C 17.800781 16.59375 17.875 16.480469 17.929688 16.355469 C 17.984375 16.226562 18.011719 16.09375 18.011719 15.953125 C 18.011719 15.816406 17.984375 15.679688 17.929688 15.554688 C 17.875 15.425781 17.800781 15.3125 17.703125 15.214844 C 17.601562 15.117188 17.488281 15.042969 17.359375 14.992188 C 17.230469 14.9375 17.097656 14.914062 16.957031 14.917969 Z M 21.097656 21.132812 C 20.886719 21.132812 20.695312 21.191406 20.519531 21.308594 C 20.34375 21.425781 20.21875 21.582031 20.136719 21.777344 C 20.058594 21.972656 20.039062 22.175781 20.082031 22.382812 C 20.125 22.589844 20.222656 22.765625 20.375 22.914062 L 20.679688 23.21875 L 20.375 23.519531 C 20.273438 23.617188 20.195312 23.730469 20.140625 23.859375 C 20.085938 23.984375 20.058594 24.121094 20.054688 24.257812 C 20.054688 24.398438 20.082031 24.53125 20.132812 24.660156 C 20.1875 24.789062 20.261719 24.90625 20.359375 25.003906 C 20.457031 25.101562 20.574219 25.175781 20.703125 25.230469 C 20.832031 25.28125 20.964844 25.308594 21.105469 25.308594 C 21.242188 25.304688 21.378906 25.277344 21.503906 25.222656 C 21.632812 25.167969 21.746094 25.089844 21.84375 24.988281 L 22.144531 24.683594 L 22.449219 24.988281 C 22.546875 25.089844 22.660156 25.167969 22.789062 25.222656 C 22.914062 25.277344 23.050781 25.304688 23.1875 25.308594 C 23.328125 25.308594 23.460938 25.28125 23.589844 25.230469 C 23.71875 25.175781 23.835938 25.101562 23.933594 25.003906 C 24.03125 24.90625 24.105469 24.789062 24.160156 24.660156 C 24.210938 24.53125 24.238281 24.398438 24.238281 24.257812 C 24.234375 24.121094 24.207031 23.984375 24.152344 23.859375 C 24.097656 23.730469 24.019531 23.617188 23.917969 23.519531 L 23.613281 23.21875 L 23.917969 22.914062 C 24.070312 22.765625 24.167969 22.585938 24.210938 22.375 C 24.253906 22.164062 24.234375 21.960938 24.148438 21.765625 C 24.066406 21.566406 23.933594 21.410156 23.753906 21.296875 C 23.574219 21.179688 23.378906 21.125 23.164062 21.132812 C 22.882812 21.140625 22.644531 21.246094 22.449219 21.445312 L 22.144531 21.75 L 21.84375 21.445312 C 21.640625 21.234375 21.390625 21.132812 21.097656 21.132812 Z M 12.808594 22.179688 C 12.667969 22.175781 12.535156 22.203125 12.40625 22.253906 C 12.277344 22.304688 12.164062 22.378906 12.066406 22.476562 C 11.964844 22.574219 11.890625 22.6875 11.835938 22.816406 C 11.78125 22.945312 11.753906 23.078125 11.753906 23.21875 C 11.753906 23.355469 11.78125 23.488281 11.835938 23.617188 C 11.890625 23.746094 11.964844 23.859375 12.066406 23.957031 C 12.164062 24.054688 12.277344 24.128906 12.40625 24.179688 C 12.535156 24.230469 12.667969 24.257812 12.808594 24.253906 L 16.957031 24.253906 C 17.097656 24.257812 17.230469 24.230469 17.359375 24.179688 C 17.488281 24.128906 17.601562 24.054688 17.703125 23.957031 C 17.800781 23.859375 17.875 23.746094 17.929688 23.617188 C 17.984375 23.488281 18.011719 23.355469 18.011719 23.21875 C 18.011719 23.078125 17.984375 22.945312 17.929688 22.816406 C 17.875 22.6875 17.800781 22.574219 17.703125 22.476562 C 17.601562 22.378906 17.488281 22.304688 17.359375 22.253906 C 17.230469 22.203125 17.097656 22.175781 16.957031 22.179688 Z M 12.808594 22.179688 " fill-opacity="1" fill-rule="nonzero"/></g></svg>