<?xml version="1.0" encoding="UTF-8"?><svg id="Layer_1" xmlns="http://www.w3.org/2000/svg" viewBox="0 0 48 48"><defs><style>.cls-1{fill:#000000;}.cls-1,.cls-2{stroke-width:0px;}.cls-2{fill:#fff;}</style></defs><rect class="cls-2" width="48" height="48"/><path class="cls-1" d="m23.99,37.07c-7.19,0-13.07-5.88-13.07-13.07s5.88-13.07,13.07-13.07c3.59,0,6.86,1.47,9.23,3.84l1.37-1.37c-2.73-2.89-6.3-4.4-10.6-4.4-8.29,0-15,6.71-15,15s6.71,15,15,15c1.15,0,2.27-.14,3.34-.39l-1.14-1.75c-.72.12-1.45.2-2.2.2Z"/><rect class="cls-1" x="16.38" y="22.55" width="2.12" height="9.56" transform="translate(-13.81 18.69) rotate(-42)"/><rect class="cls-1" x="15.89" y="21.29" width="25.72" height="1.93" transform="translate(-7.51 24.96) rotate(-42)"/><rect class="cls-1" x="26.1" y="30" width="10.81" height="1.93" transform="translate(.54 62.47) rotate(-90)"/><rect class="cls-1" x="26.1" y="30" width="10.81" height="1.93"/></svg>