<svg xmlns="http://www.w3.org/2000/svg" xmlns:xlink="http://www.w3.org/1999/xlink" width="254" zoomAndPan="magnify" viewBox="0 0 190.5 90.749999" height="121" preserveAspectRatio="xMidYMid meet" version="1.0"><defs><clipPath id="59a4d84655"><path d="M 64.0625 3.367188 L 126.304688 3.367188 L 126.304688 87.355469 L 64.0625 87.355469 Z M 64.0625 3.367188 " clip-rule="nonzero"/></clipPath><clipPath id="255d992a9b"><path d="M 104 3.367188 L 126.304688 3.367188 L 126.304688 26 L 104 26 Z M 104 3.367188 " clip-rule="nonzero"/></clipPath><clipPath id="5db181aadb"><path d="M 77.570312 30.714844 L 112.816406 30.714844 L 112.816406 76.460938 L 77.570312 76.460938 Z M 77.570312 30.714844 " clip-rule="nonzero"/></clipPath></defs><g clip-path="url(#59a4d84655)"><path fill="#5e17eb" d="M 126.304688 25.660156 L 126.304688 83.003906 C 126.304688 83.289062 126.277344 83.570312 126.222656 83.847656 C 126.167969 84.125 126.085938 84.394531 125.976562 84.65625 C 125.867188 84.917969 125.734375 85.164062 125.578125 85.398438 C 125.421875 85.636719 125.242188 85.855469 125.042969 86.054688 C 124.84375 86.253906 124.625 86.433594 124.390625 86.589844 C 124.15625 86.746094 123.910156 86.878906 123.648438 86.988281 C 123.386719 87.097656 123.117188 87.179688 122.839844 87.234375 C 122.5625 87.289062 122.285156 87.316406 122 87.316406 L 68.367188 87.316406 C 68.082031 87.316406 67.804688 87.289062 67.527344 87.234375 C 67.25 87.179688 66.980469 87.097656 66.71875 86.988281 C 66.457031 86.878906 66.210938 86.746094 65.976562 86.589844 C 65.738281 86.433594 65.523438 86.253906 65.324219 86.054688 C 65.125 85.855469 64.945312 85.636719 64.789062 85.402344 C 64.628906 85.164062 64.5 84.917969 64.390625 84.65625 C 64.28125 84.394531 64.199219 84.125 64.144531 83.847656 C 64.089844 83.570312 64.0625 83.289062 64.0625 83.003906 L 64.0625 7.714844 C 64.0625 7.433594 64.089844 7.152344 64.144531 6.875 C 64.199219 6.597656 64.28125 6.328125 64.390625 6.066406 C 64.5 5.804688 64.628906 5.554688 64.789062 5.320312 C 64.945312 5.085938 65.125 4.867188 65.324219 4.667969 C 65.523438 4.464844 65.738281 4.289062 65.976562 4.128906 C 66.210938 3.972656 66.457031 3.839844 66.71875 3.730469 C 66.980469 3.625 67.25 3.542969 67.527344 3.484375 C 67.804688 3.429688 68.082031 3.402344 68.367188 3.402344 L 104.089844 3.402344 Z M 126.304688 25.660156 " fill-opacity="1" fill-rule="nonzero"/></g><g clip-path="url(#255d992a9b)"><path fill="#8c52ff" d="M 126.304688 25.660156 L 105.894531 25.660156 C 105.652344 25.660156 105.425781 25.617188 105.203125 25.523438 C 104.980469 25.433594 104.785156 25.300781 104.617188 25.132812 C 104.449219 24.960938 104.316406 24.765625 104.226562 24.546875 C 104.132812 24.324219 104.089844 24.09375 104.089844 23.851562 L 104.089844 3.402344 Z M 126.304688 25.660156 " fill-opacity="1" fill-rule="nonzero"/></g><path fill="#5e17eb" d="M 82.050781 47.882812 L 75.972656 47.882812 L 75.972656 63.320312 L 79.726562 63.320312 L 79.726562 57.777344 L 82.050781 57.777344 C 85.980469 57.777344 87.714844 55.402344 87.714844 52.851562 C 87.714844 50.015625 85.828125 47.882812 82.050781 47.882812 Z M 81.765625 54.789062 L 79.726562 54.789062 L 79.726562 50.917969 L 81.765625 50.917969 C 83.257812 50.917969 83.894531 51.664062 83.894531 52.851562 C 83.894531 54.039062 83.257812 54.789062 81.765625 54.789062 Z M 81.765625 54.789062 " fill-opacity="1" fill-rule="nonzero"/><path fill="#5e17eb" d="M 95.4375 47.882812 L 89.667969 47.882812 L 89.667969 63.320312 L 95.4375 63.320312 C 100.351562 63.320312 103.511719 60.175781 103.511719 55.601562 C 103.511719 51.007812 100.351562 47.882812 95.4375 47.882812 Z M 95.195312 60.066406 L 93.417969 60.066406 L 93.417969 51.09375 L 95.195312 51.09375 C 98.027344 51.09375 99.695312 52.765625 99.695312 55.601562 C 99.695312 58.4375 98.027344 60.066406 95.195312 60.066406 Z M 95.195312 60.066406 " fill-opacity="1" fill-rule="nonzero"/><path fill="#5e17eb" d="M 115.648438 50.898438 L 115.648438 47.882812 L 105.621094 47.882812 L 105.621094 63.320312 L 109.371094 63.320312 L 109.371094 57.074219 L 114.066406 57.074219 L 114.066406 54.152344 L 109.371094 54.152344 L 109.371094 50.898438 Z M 115.648438 50.898438 " fill-opacity="1" fill-rule="nonzero"/><path fill="#ffffff" d="M 92.992188 34.4375 C 92.65625 34.519531 92.40625 34.519531 92.40625 35.195312 C 92.40625 36.035156 92.738281 37.214844 93.40625 38.648438 C 93.738281 36.964844 93.820312 35.617188 93.570312 34.855469 C 93.40625 34.4375 93.324219 34.4375 92.992188 34.4375 Z M 94.15625 44.964844 C 93.902344 45.640625 93.65625 46.226562 93.488281 46.648438 C 93.234375 47.324219 92.910156 47.917969 92.65625 48.503906 C 93.074219 48.421875 93.488281 48.335938 93.902344 48.335938 C 94.734375 48.253906 95.566406 48.082031 96.402344 48.082031 C 95.980469 47.578125 95.652344 47.15625 95.484375 46.902344 C 95.152344 46.398438 94.652344 45.722656 94.15625 44.964844 Z M 102.3125 50.441406 C 103.558594 51.535156 104.640625 52.210938 105.472656 52.296875 C 105.804688 52.378906 105.96875 52.378906 106.222656 51.792969 C 106.304688 51.621094 106.304688 51.535156 105.804688 51.199219 C 105.054688 50.859375 103.808594 50.523438 102.3125 50.441406 Z M 87.492188 52.378906 C 85.75 52.96875 84.414062 53.730469 83.832031 54.398438 C 83.582031 54.652344 83.582031 54.824219 83.914062 55.246094 C 84.085938 55.410156 84.167969 55.582031 84.835938 55.246094 C 85.585938 54.734375 86.578125 53.730469 87.492188 52.378906 Z M 84.25 57.9375 C 83.417969 57.9375 82.667969 57.605469 82 56.84375 C 80.917969 55.582031 80.835938 53.976562 81.917969 52.714844 C 82.75 51.621094 84.414062 50.695312 86.742188 49.847656 C 87.582031 49.597656 88.492188 49.261719 89.414062 49.09375 C 89.992188 48 90.578125 46.820312 91.074219 45.558594 C 91.574219 44.378906 91.988281 43.28125 92.324219 42.1875 C 90.988281 39.910156 89.742188 37.214844 89.828125 35.113281 C 89.828125 33.257812 90.90625 32.078125 92.65625 31.828125 C 94.238281 31.65625 95.402344 32.417969 95.898438 33.933594 C 96.566406 35.953125 95.898438 39.070312 95.152344 41.765625 C 95.816406 42.863281 96.566406 43.957031 97.480469 45.046875 C 98.230469 45.980469 98.898438 46.820312 99.648438 47.660156 C 102.5625 47.660156 105.308594 47.917969 106.972656 48.839844 C 108.46875 49.683594 109.050781 50.949219 108.632812 52.460938 C 108.136719 54.144531 106.808594 54.992188 105.136719 54.734375 C 102.976562 54.488281 100.476562 52.378906 98.5625 50.359375 C 97.234375 50.441406 95.734375 50.523438 94.238281 50.777344 C 93.15625 50.949219 92.070312 51.117188 91.074219 51.363281 C 90.742188 52.039062 90.328125 52.632812 89.992188 53.136719 C 88.574219 55.246094 87.246094 56.671875 86 57.433594 C 85.414062 57.769531 84.835938 57.9375 84.25 57.9375 " fill-opacity="1" fill-rule="nonzero"/><path fill="#ffffff" d="M 85.585938 67.367188 L 86.742188 67.367188 C 87.664062 67.367188 88.242188 66.699219 88.242188 66.023438 C 88.242188 65.097656 87.664062 64.671875 86.742188 64.671875 L 85.585938 64.671875 Z M 83.335938 63.75 C 83.335938 62.996094 83.832031 62.652344 84.414062 62.652344 L 87.164062 62.652344 C 88.910156 62.652344 90.578125 63.75 90.578125 66.023438 C 90.578125 67.960938 89.414062 69.390625 87.246094 69.390625 L 85.585938 69.390625 L 85.585938 71.5 C 85.585938 72.257812 85.082031 72.675781 84.5 72.675781 C 83.832031 72.675781 83.417969 72.257812 83.417969 71.5 L 83.417969 63.75 L 83.335938 63.75 " fill-opacity="1" fill-rule="nonzero"/><path fill="#ffffff" d="M 93.984375 70.492188 L 95.152344 70.492188 C 96.902344 70.492188 97.734375 69.304688 97.734375 67.539062 C 97.734375 65.859375 96.902344 64.761719 95.238281 64.761719 L 93.984375 64.761719 Z M 91.738281 63.75 C 91.738281 62.996094 92.242188 62.652344 92.820312 62.652344 L 95.484375 62.652344 C 98.398438 62.652344 100.0625 65.011719 100.0625 67.539062 C 100.0625 70.824219 97.902344 72.59375 95.484375 72.59375 L 92.820312 72.59375 C 92.242188 72.59375 91.738281 72.175781 91.738281 71.5 L 91.738281 63.75 " fill-opacity="1" fill-rule="nonzero"/><path fill="#ffffff" d="M 101.398438 63.75 C 101.398438 62.996094 101.894531 62.652344 102.476562 62.652344 L 105.886719 62.652344 C 106.554688 62.652344 106.972656 63.078125 106.972656 63.664062 C 106.972656 64.339844 106.554688 64.671875 105.886719 64.671875 L 103.558594 64.671875 L 103.558594 66.445312 L 105.554688 66.445312 C 106.222656 66.445312 106.636719 66.863281 106.636719 67.457031 C 106.636719 68.128906 106.222656 68.464844 105.554688 68.464844 L 103.558594 68.464844 L 103.558594 71.332031 C 103.558594 72.089844 103.058594 72.511719 102.476562 72.511719 C 101.8125 72.511719 101.398438 72.089844 101.398438 71.332031 L 101.398438 63.75 " fill-opacity="1" fill-rule="nonzero"/><g clip-path="url(#5db181aadb)"><path fill="#ffffff" d="M 107.46875 27.699219 C 106.304688 27.699219 105.390625 26.773438 105.390625 25.589844 L 105.390625 19.527344 L 113.464844 27.699219 Z M 116.542969 32.835938 C 115.875 32.835938 115.296875 33.429688 115.296875 34.097656 L 115.296875 76.71875 C 115.296875 78.152344 114.132812 79.332031 112.714844 79.332031 L 76.59375 79.332031 C 75.179688 79.332031 74.015625 78.152344 74.015625 76.71875 L 74.015625 20.453125 C 74.015625 19.023438 75.179688 17.847656 76.59375 17.847656 L 102.894531 17.847656 L 102.894531 25.679688 C 102.894531 28.203125 104.972656 30.3125 107.46875 30.3125 L 116.460938 30.3125 C 116.957031 30.3125 117.457031 29.976562 117.625 29.554688 C 117.789062 29.132812 117.707031 28.539062 117.375 28.121094 L 105.054688 15.652344 C 104.722656 15.316406 104.308594 15.234375 103.972656 15.316406 L 76.675781 15.316406 C 73.847656 15.316406 71.515625 17.675781 71.515625 20.542969 L 71.515625 76.800781 C 71.515625 79.667969 73.847656 82.027344 76.675781 82.027344 L 112.714844 82.027344 C 115.542969 82.027344 117.871094 79.667969 117.871094 76.800781 L 117.871094 34.097656 C 117.789062 33.429688 117.292969 32.835938 116.542969 32.835938 " fill-opacity="1" fill-rule="nonzero"/></g></svg>