<?xml version="1.0" encoding="UTF-8"?><svg id="Layer_1" xmlns="http://www.w3.org/2000/svg" viewBox="0 0 48 48"><defs><style>.cls-1{fill:#000000;}.cls-1,.cls-2{stroke-width:0px;}.cls-2{fill:#fff;}</style></defs><rect class="cls-2" width="48" height="48"/><path class="cls-1" d="m11.87,38.98s.01-.06.03-.08c.74-.98,1.41-1.99,1.88-3.13.3-.71.55-1.44.62-2.22.01-.15-.03-.25-.16-.34-2.38-1.64-4.17-3.77-5.2-6.5-.41-1.08-.65-2.21-.71-3.37-.19-3.33.89-6.23,3-8.76,1.96-2.35,4.48-3.88,7.38-4.79,1.24-.39,2.51-.64,3.81-.74.98-.08,1.96-.09,2.94,0,2.93.26,5.65,1.14,8.1,2.78,2.63,1.76,4.51,4.11,5.53,7.12.32.92.47,1.88.54,2.85.13,1.77-.13,3.48-.77,5.12-.79,2.04-2.02,3.77-3.66,5.22-1.14,1-2.39,1.82-3.76,2.46-1.57.74-3.23,1.22-4.95,1.46-1.1.15-2.2.22-3.3.16-.99-.05-1.98-.19-2.95-.41-.13-.03-.21,0-.29.09-.67.72-1.42,1.34-2.27,1.83-1.48.85-3.07,1.25-4.77,1.25-.34,0-.69,0-1.03,0,0,0,0,0-.02-.02Zm2.78-1.77s-.26.36-.24.36c.07-.01,3.1-.91,5.13-3.32.11-.13.2-.15.34-.13.06.01.12.03.17.04.73.14,1.47.31,2.21.4,1.25.15,2.5.13,3.75-.02,1.4-.16,2.75-.51,4.05-1.05,1.98-.82,3.73-1.99,5.14-3.62,1.79-2.07,2.79-4.44,2.8-7.2,0-1.94-.51-3.73-1.48-5.39-.93-1.6-2.2-2.89-3.72-3.95-2-1.39-4.21-2.22-6.62-2.53-1.82-.23-3.64-.2-5.46.18-2.21.46-4.22,1.33-6.02,2.69-1.67,1.25-2.96,2.81-3.82,4.72-.5,1.11-.79,2.28-.88,3.5-.05.71-.05,1.42.04,2.13.28,1.99,1.07,3.75,2.32,5.32.98,1.23,2.17,2.23,3.49,3.08.05.03.11.11.11.17.07,1.62-1.13,4.23-1.33,4.64Z"/><path class="cls-1" d="m27.31,29.29c0-.22,0-.42,0-.62,0-3.76,0-7.53,0-11.29,0-.39,0-.78,0-1.16,0-.11.03-.15.15-.15,1.22,0,2.43,0,3.65,0,.12,0,.17.03.17.16,0,1.9,0,3.8,0,5.7,0,2.4,0,4.79,0,7.19,0,.15-.03.19-.19.18-1.18-.01-2.36,0-3.54,0-.07,0-.14,0-.25,0Zm1.35-11.89v10.58h1.28v-10.58h-1.28Z"/><path class="cls-1" d="m16.73,18.7h3.95v10.58h-3.95v-10.58Zm2.61,9.29v-7.96h-1.27v7.96h1.27Z"/><path class="cls-1" d="m25.98,29.28h-3.97c0-.21,0-.41,0-.62,0-2.04,0-4.07,0-6.11,0-.13,0-.26,0-.39,0-.1.03-.14.14-.14,1.22,0,2.45,0,3.67,0,.1,0,.16,0,.16.13,0,.99,0,1.97,0,2.96,0,1.3,0,2.61,0,3.91,0,.08,0,.17,0,.26Zm-1.35-1.3v-4.63h-1.27v4.63h1.27Z"/></svg>