<?xml version="1.0" encoding="UTF-8"?><svg id="Layer_1" xmlns="http://www.w3.org/2000/svg" viewBox="0 0 48 48"><defs><style>.cls-1{fill:#A8A8A8;}.cls-1,.cls-2{stroke-width:0px;}.cls-2{fill:#fff;}</style></defs><rect class="cls-2" width="48" height="48"/><path class="cls-1" d="m37.69,34.65c-.26.43-.5.86-.76,1.27-.64,1-1.39,1.91-2.24,2.73-.95.92-2.02,1.69-3.16,2.35-1.49.86-3.08,1.41-4.77,1.72-.95.17-1.91.3-2.87.28-1.99-.04-3.92-.4-5.78-1.16-2.78-1.15-5.04-2.95-6.79-5.39-1.37-1.9-2.23-4.02-2.63-6.32-.5-2.93-.16-5.76.98-8.5.14-.32.28-.64.44-.96.06-.13.05-.21-.05-.31-.92-.92-1.85-1.84-2.77-2.77-.46-.47-.59-1.14-.31-1.69.09-.17.21-.34.35-.47,1.54-1.54,3.08-3.08,4.62-4.61.71-.7,1.52-.69,2.23,0,.92.9,1.82,1.81,2.73,2.73.13.13.22.13.38.06.58-.25,1.16-.48,1.75-.71.1-.04.14-.08.14-.2,0-1.82-.01-3.64-.02-5.45,0-.2,0-.41,0-.61.03-.96.66-1.62,1.63-1.63,2.15-.01,4.29-.01,6.44,0,.27,0,.56.06.81.16.6.26.88.76.89,1.4.01,1.2,0,2.4,0,3.6,0,.87,0,1.73,0,2.6,0,.13.04.18.16.22.53.21,1.05.43,1.57.66.12.05.19.05.28-.05.9-.9,1.8-1.8,2.7-2.7.32-.32.67-.57,1.14-.59.42-.02.78.13,1.07.42.41.39.81.78,1.21,1.18,1.19,1.19,2.38,2.38,3.57,3.57.36.35.58.75.51,1.27-.05.33-.24.6-.47.83-.95.96-1.9,1.91-2.86,2.86-.08.08-.1.14-.05.25.66,1.3,1.12,2.66,1.37,4.09.14.76.18,1.55.25,2.32.02.15.02.31.03.47-.05,0-.1,0-.15,0-.87,0-1.15,0-2.02,0-.25,0-.2-.02-.2-.26.15-7.9-7.29-13.05-13.03-13.05-7.51-.18-13.38,7.07-13.42,13.34-.11,7.26,6.67,13.34,13.84,13.16,6.18-.11,10.37-5.59,11.11-7.02.05-.1.08-.2.18-.15.76.4.94.53,1.71.93.08.04.16.09.25.15ZM27.14,6.68c-1.7,0-3.39,0-5.07,0-.3,0-.61,0-.91,0-.14,0-.22.03-.22.17.02,1.7.03,3.39.03,5.09,0,.25.15.25.38.23,1.44-.12,2.88-.16,4.32-.05.49.04.98.06,1.48.09v-5.54Zm11.83,9.75c-1.34-1.27-2.68-2.55-4.04-3.84-.81.69-1.58,1.36-2.36,2.03,1.54,1.09,2.9,2.54,4.11,3.9.79-.65,1.55-1.47,2.29-2.09Zm-25.8-4.29c-1.46,1.5-2.85,2.93-4.24,4.37-.05.05-.06.22-.02.27.73.76,1.47,1.5,2.22,2.27.1-.11.19-.21.27-.31,1.13-1.37,2.36-2.64,3.72-3.77q.42-.34.04-.74c-.65-.69-1.31-1.37-1.99-2.09Z"/><path class="cls-1" d="m36.49,31.57c.1-.36.2-.71.28-1.06.05-.2.09-.4.11-.6.02-.13.08-.16.19-.14.35.05.69.11,1.04.16.58.09.47.05,1.09.15-.06.3-.11.6-.18.9-.1.41-.22.82-.33,1.23-.03.12-.07.18-.22.13-.83-.28-.98-.43-1.81-.7-.06-.02-.11-.04-.17-.07Z"/><path class="cls-1" d="m22.03,24.49c-.13-.35-.26-.68-.39-1.02-.05-.13-.11-.26-.15-.4-.01-.04,0-.12.04-.14.98-.65,2.04-.89,3.18-.61.96.24,1.55.87,1.74,1.84.15.73-.07,1.4-.47,2-.24.37-.53.71-.8,1.06-.28.36-.56.73-.64,1.19-.04.21-.04.44-.04.65,0,.19.02.37.02.56,0,.03-.05.08-.07.08-.55,0-1.1,0-1.63,0-.22-1.08-.04-2.07.61-2.95.22-.3.46-.59.69-.89.21-.28.39-.58.44-.93.02-.13.02-.28,0-.41-.07-.41-.35-.63-.82-.66-.6-.04-1.14.14-1.6.52-.03.03-.06.05-.11.08Z"/><path class="cls-1" d="m24.77,31.69c0,.81-.61,1.18-1.13,1.19-.66.01-1.18-.52-1.18-1.22,0-.63.52-1.17,1.14-1.17.68,0,1.17.49,1.17,1.2Z"/></svg>