<?xml version="1.0" encoding="utf-8"?>
<!-- Generator: Adobe Illustrator 27.3.1, SVG Export Plug-In . SVG Version: 6.00 Build 0)  -->
<svg version="1.1" id="Layer_1" xmlns="http://www.w3.org/2000/svg" xmlns:xlink="http://www.w3.org/1999/xlink" x="0px" y="0px" height="48px" width="48px"
	 viewBox="0 0 48 48" style="enable-background:new 0 0 48 48;" xml:space="preserve">
<g>
	<path fill="#6513e1" d="M39,35.7c-0.3,0.5-0.5,0.9-0.8,1.4c-0.7,1.1-1.5,2.1-2.5,3c-1,1-2.2,1.8-3.5,2.6c-1.6,0.9-3.4,1.5-5.2,1.9
		c-1,0.2-2.1,0.3-3.1,0.3c-2.2,0-4.3-0.4-6.3-1.3c-3-1.3-5.5-3.2-7.4-5.9c-1.5-2.1-2.4-4.4-2.9-6.9c-0.5-3.2-0.2-6.3,1.1-9.3
		c0.1-0.4,0.3-0.7,0.5-1.1c0.1-0.1,0.1-0.2-0.1-0.3c-1-1-2-2-3-3c-0.5-0.5-0.6-1.3-0.3-1.9c0.1-0.2,0.2-0.4,0.4-0.5
		c1.7-1.7,3.4-3.4,5.1-5c0.8-0.8,1.7-0.8,2.4,0c1,1,2,2,3,3c0.1,0.1,0.2,0.1,0.4,0.1c0.6-0.3,1.3-0.5,1.9-0.8c0.1,0,0.2-0.1,0.2-0.2
		c0-2,0-4,0-6c0-0.2,0-0.4,0-0.7c0-1.1,0.7-1.8,1.8-1.8c2.4,0,4.7,0,7.1,0c0.3,0,0.6,0.1,0.9,0.2c0.7,0.3,1,0.8,1,1.5
		c0,1.3,0,2.6,0,3.9c0,0.9,0,1.9,0,2.8c0,0.1,0,0.2,0.2,0.2c0.6,0.2,1.2,0.5,1.7,0.7c0.1,0.1,0.2,0.1,0.3-0.1c1-1,2-2,3-3
		C34.9,9.3,35.3,9,35.8,9c0.5,0,0.9,0.1,1.2,0.5c0.4,0.4,0.9,0.9,1.3,1.3c1.3,1.3,2.6,2.6,3.9,3.9c0.4,0.4,0.6,0.8,0.6,1.4
		c-0.1,0.4-0.3,0.7-0.5,0.9c-1,1-2.1,2.1-3.1,3.1c-0.1,0.1-0.1,0.2-0.1,0.3c0.7,1.4,1.2,2.9,1.5,4.5c0.1,0.8,0.2,1.7,0.3,2.5
		c0,0.2,0,0.3,0,0.5c-0.1,0-0.1,0-0.2,0c-1,0-1.9,0-2.9,0c-0.3,0-0.3,0-0.3-0.3c0-1.3-0.2-2.6-0.6-3.8c-0.8-2.6-2.3-4.8-4.5-6.5
		c-1.7-1.4-3.7-2.3-5.9-2.8c-1.4-0.3-2.8-0.3-4.2-0.2c-2,0.2-3.9,0.9-5.6,1.9c-1.6,1-3,2.3-4.1,3.9c-1.1,1.6-1.8,3.3-2.1,5.2
		c-0.2,1.2-0.3,2.5-0.2,3.8c0.2,2.5,1.1,4.8,2.6,6.8c1.7,2.2,3.8,3.8,6.4,4.8c1.7,0.6,3.5,0.9,5.3,0.8c3.1-0.2,5.8-1.2,8.1-3.2
		c1.3-1.1,2.4-2.5,3.2-4c0.1-0.1,0.1-0.1,0.2-0.1c0.8,0.4,1.7,0.9,2.5,1.3C38.8,35.6,38.9,35.6,39,35.7z M26.1,6.5
		c-1.1,0-2.3,0-3.4,0c-0.2,0-0.4,0-0.6,0c-0.1,0-0.1,0-0.1,0.1c0,1.4,0,2.8,0,4.3c0,0.2,0.1,0.2,0.3,0.2c1-0.1,1.9-0.1,2.9,0
		c0.3,0,0.7,0.1,1,0.1C26.1,9.5,26.1,8,26.1,6.5z M38.7,15.8c-0.9-1-1.9-1.9-2.8-2.9c-0.5,0.6-1.1,1.1-1.6,1.6
		c1.1,0.8,2,1.8,2.9,2.8C37.7,16.8,38.2,16.3,38.7,15.8z M12,12.9c-1,1-1.9,1.9-2.8,2.8c0,0,0,0.1,0,0.2c0.5,0.5,1,1,1.5,1.5
		c0.1-0.1,0.1-0.1,0.2-0.2c0.7-0.9,1.5-1.7,2.4-2.4c0.3-0.2,0.3-0.2,0-0.5C12.9,13.8,12.5,13.4,12,12.9z"/>
	<path fill="#6513e1" d="M21.1,23.4c-0.2-0.5-0.4-1-0.6-1.5c-0.1-0.2-0.2-0.4-0.2-0.6c0-0.1,0-0.2,0.1-0.2c1.4-1,3-1.3,4.7-0.9
		c1.4,0.4,2.3,1.3,2.6,2.7c0.2,1.1-0.1,2.1-0.7,3c-0.4,0.5-0.8,1.1-1.2,1.6c-0.4,0.5-0.8,1.1-1,1.8c-0.1,0.3-0.1,0.6-0.1,1
		c0,0.3,0,0.6,0,0.8c0,0-0.1,0.1-0.1,0.1c-0.8,0-1.6,0-2.4,0c-0.3-1.6-0.1-3.1,0.9-4.4c0.3-0.4,0.7-0.9,1-1.3
		c0.3-0.4,0.6-0.9,0.6-1.4c0-0.2,0-0.4,0-0.6c-0.1-0.6-0.5-0.9-1.2-1c-0.9-0.1-1.7,0.2-2.4,0.8C21.2,23.3,21.2,23.3,21.1,23.4z"/>
	<path fill="#6513e1" d="M25.1,34c0,1.2-0.9,1.7-1.7,1.8c-1,0-1.7-0.8-1.7-1.8c0-0.9,0.8-1.7,1.7-1.7C24.4,32.3,25.1,33,25.1,34z"/>
	<path fill="#6513e1" d="M36.9,32.1c0.1-0.4,0.2-0.8,0.3-1.2c0.1-0.2,0.1-0.4,0.1-0.7c0-0.1,0.1-0.2,0.2-0.2c0.4,0.1,0.8,0.1,1.1,0.2
		c0.6,0.1,1.3,0.2,1.9,0.3c-0.1,0.3-0.1,0.7-0.2,1c-0.1,0.5-0.2,0.9-0.4,1.4c0,0.1-0.1,0.2-0.2,0.1c-0.9-0.3-1.8-0.6-2.7-0.9
		C37.1,32.2,37,32.2,36.9,32.1z"/>
</g>
</svg>