<svg xmlns="http://www.w3.org/2000/svg" xmlns:xlink="http://www.w3.org/1999/xlink" width="48" zoomAndPan="magnify" viewBox="0 0 36 36.000001" height="48" preserveAspectRatio="xMidYMid meet" version="1.0"><defs><clipPath id="457e0b5b0d"><path d="M 0.488281 0 L 35.511719 0 L 35.511719 35.027344 L 0.488281 35.027344 Z M 0.488281 0 " clip-rule="nonzero"/></clipPath><clipPath id="50a5907be3"><path d="M 1.683594 0 L 34.519531 0 L 34.519531 35.027344 L 1.683594 35.027344 Z M 1.683594 0 " clip-rule="nonzero"/></clipPath></defs><g clip-path="url(#457e0b5b0d)"><path fill="#ffffff" d="M 0.488281 0 L 35.511719 0 L 35.511719 35.027344 L 0.488281 35.027344 Z M 0.488281 0 " fill-opacity="1" fill-rule="nonzero"/><path fill="#ffffff" d="M 0.488281 0 L 35.511719 0 L 35.511719 35.027344 L 0.488281 35.027344 Z M 0.488281 0 " fill-opacity="1" fill-rule="nonzero"/></g><g clip-path="url(#50a5907be3)"><path fill="#000000" d="M 13.511719 12.78125 C 11.695312 12.78125 10.773438 10.285156 12.558594 9.246094 C 13.503906 8.6875 14.570312 9.050781 15.136719 9.890625 C 15.855469 10.964844 15.101562 12.78125 13.511719 12.78125 Z M 18.035156 35.027344 C 9.019531 35.027344 1.683594 27.691406 1.683594 18.671875 C 1.683594 10.640625 7.46875 3.878906 15.34375 2.585938 L 14.285156 0.832031 C 14.054688 0.453125 14.351562 0 14.753906 0 L 21.25 0 C 21.679688 0 21.945312 0.460938 21.726562 0.816406 L 20.667969 2.59375 C 28.546875 3.902344 34.316406 10.667969 34.316406 18.671875 C 34.316406 27.691406 27.003906 35.027344 18.035156 35.027344 Z M 16.679688 2.675781 L 18.027344 4.890625 L 19.199219 2.910156 C 19.222656 2.78125 19.296875 2.667969 19.394531 2.585938 L 20.28125 1.09375 L 15.71875 1.09375 Z M 15.96875 3.597656 C 8.429688 4.613281 2.78125 11.039062 2.78125 18.671875 C 2.78125 27.089844 9.617188 33.925781 18.035156 33.925781 C 26.40625 33.925781 33.21875 27.089844 33.21875 18.671875 C 33.21875 11.046875 27.59375 4.640625 20.070312 3.605469 L 18.980469 5.4375 C 25.855469 5.921875 31.300781 11.675781 31.300781 18.671875 C 31.300781 26.023438 25.28125 31.988281 18.019531 31.949219 C 10.570312 31.921875 4.695312 25.910156 4.695312 18.671875 C 4.695312 11.757812 10.070312 5.933594 17.082031 5.4375 Z M 17.488281 6.511719 C 13.382812 6.691406 9.804688 8.890625 7.71875 12.128906 L 16.144531 16.984375 C 16.492188 16.597656 16.960938 16.320312 17.488281 16.199219 Z M 7.167969 13.066406 C 5.328125 16.582031 5.328125 20.773438 7.167969 24.28125 L 15.613281 19.417969 C 15.464844 18.929688 15.464844 18.414062 15.613281 17.9375 Z M 7.71875 25.226562 C 9.804688 28.464844 13.382812 30.65625 17.488281 30.839844 L 17.488281 21.144531 C 16.960938 21.03125 16.492188 20.75 16.144531 20.363281 Z M 18.578125 30.839844 C 22.648438 30.65625 26.210938 28.464844 28.289062 25.226562 L 19.894531 20.351562 C 19.554688 20.742188 19.101562 21.023438 18.578125 21.144531 Z M 28.839844 24.28125 C 30.664062 20.773438 30.664062 16.582031 28.839844 13.066406 L 20.402344 17.96875 C 20.523438 18.421875 20.523438 18.921875 20.402344 19.382812 Z M 28.289062 12.121094 C 26.210938 8.890625 22.648438 6.691406 18.578125 6.511719 L 18.578125 16.199219 C 19.101562 16.320312 19.554688 16.605469 19.894531 17 Z M 18.035156 17.234375 C 17.21875 17.234375 16.597656 17.914062 16.597656 18.671875 C 16.597656 19.390625 17.203125 20.109375 18.035156 20.109375 C 19.835938 20.109375 19.835938 17.234375 18.035156 17.234375 Z M 22.488281 12.773438 C 20.332031 12.773438 19.820312 9.65625 22.011719 9.035156 C 22.511719 8.898438 23.019531 8.96875 23.433594 9.234375 C 25.195312 10.253906 24.449219 12.773438 22.488281 12.773438 Z M 21.785156 10.464844 C 21.285156 11.570312 22.746094 12.113281 23.222656 11.28125 C 23.691406 10.472656 22.488281 9.511719 21.785156 10.464844 Z M 23.707031 11.5625 Z M 26.996094 20.585938 C 25.9375 20.585938 25.082031 19.730469 25.082031 18.671875 C 25.082031 17.621094 25.9375 16.757812 26.996094 16.757812 C 28.046875 16.757812 28.910156 17.621094 28.910156 18.671875 C 28.910156 19.730469 28.046875 20.585938 26.996094 20.585938 Z M 26.996094 17.855469 C 25.914062 17.855469 25.914062 19.496094 26.996094 19.496094 C 28.070312 19.496094 28.070312 17.855469 26.996094 17.855469 Z M 22.519531 28.382812 C 20.558594 28.382812 19.863281 25.789062 21.519531 24.835938 C 22.40625 24.3125 23.570312 24.59375 24.167969 25.492188 C 24.953125 26.664062 23.949219 28.382812 22.519531 28.382812 Z M 21.785156 26.882812 C 22.496094 27.851562 23.699219 26.867188 23.230469 26.074219 C 23.035156 25.742188 22.421875 25.515625 22.058594 25.789062 C 21.71875 25.976562 21.597656 26.46875 21.785156 26.882812 Z M 13.480469 28.382812 C 12.195312 28.382812 11.03125 26.96875 11.878906 25.515625 C 13.003906 23.578125 16.234375 24.828125 15.167969 27.40625 C 14.957031 27.898438 14.15625 28.382812 13.480469 28.382812 Z M 13.511719 25.660156 C 12.671875 25.660156 12.398438 26.867188 13.074219 27.140625 C 13.253906 27.222656 13.359375 27.34375 13.679688 27.253906 C 14.640625 26.976562 14.398438 25.660156 13.511719 25.660156 Z M 9.003906 20.585938 C 7.953125 20.585938 7.089844 19.730469 7.089844 18.671875 C 7.089844 17.621094 7.953125 16.757812 9.003906 16.757812 C 10.054688 16.757812 10.917969 17.621094 10.917969 18.671875 C 10.917969 19.730469 10.054688 20.585938 9.003906 20.585938 Z M 9.003906 17.855469 C 7.921875 17.855469 7.921875 19.496094 9.003906 19.496094 C 10.085938 19.496094 10.085938 17.855469 9.003906 17.855469 Z M 13.488281 10.058594 C 12.929688 10.058594 12.429688 10.746094 12.832031 11.289062 C 13.566406 12.273438 14.660156 11.238281 14.199219 10.464844 C 14.085938 10.269531 13.761719 10.058594 13.488281 10.058594 Z M 12.832031 9.710938 Z M 12.832031 9.710938 " fill-opacity="1" fill-rule="evenodd"/></g></svg>