<?xml version="1.0" encoding="UTF-8"?><svg id="Layer_1" xmlns="http://www.w3.org/2000/svg" viewBox="0 0 48 48"><defs><style>.cls-1{fill:#A8A8A8;}.cls-1,.cls-2{stroke-width:0px;}.cls-2{fill:#fff;}</style></defs><rect class="cls-2" width="48" height="48"/><circle class="cls-1" cx="17.68" cy="21.63" r="2.37"/><circle class="cls-1" cx="30.32" cy="21.63" r="2.37"/><path class="cls-1" d="m31.18,29.13c-.28,0-.51.12-.63.32-1.5,1.97-3.87,3.2-6.55,3.2s-5.01-1.22-6.55-3.2c-.16-.2-.39-.32-.63-.32-.43,0-.79.36-.79.79,0,.16.04.32.16.47,1.82,2.37,4.62,3.87,7.82,3.87s6-1.5,7.82-3.87c.08-.12.16-.28.16-.47,0-.43-.36-.79-.79-.79Z"/><path class="cls-1" d="m24,9c-8.29,0-15,6.71-15,15,0,8.29,6.71,15,15,15,8.29,0,15-6.71,15-15s-6.71-15-15-15Zm0,1.93c7.19,0,13.07,5.88,13.07,13.07s-5.88,13.07-13.07,13.07-13.07-5.88-13.07-13.07,5.88-13.07,13.07-13.07"/></svg>