<?xml version="1.0" encoding="UTF-8"?>
<svg id="Layer_1" xmlns="http://www.w3.org/2000/svg" viewBox="0 0 41.55 41.55" height="48px" width="48px">
<defs>
<style>.cls-1{stroke-width:0px;}</style>
</defs>
<circle fill="#6513e1" class="cls-1" cx="12.03" cy="17.49" r="3.28"/>
<circle fill="#6513e1" class="cls-1" cx="29.52" cy="17.49" r="3.28"/>
<path fill="#6513e1" class="cls-1" d="m30.72,27.88c-.38,0-.71.16-.87.44-2.08,2.73-5.36,4.43-9.08,4.43s-6.94-1.69-9.08-4.43c-.22-.27-.55-.44-.87-.44-.6,0-1.09.49-1.09,1.09,0,.22.05.44.22.66,2.51,3.28,6.4,5.36,10.82,5.36s8.31-2.08,10.82-5.36c.11-.16.22-.38.22-.66,0-.6-.49-1.09-1.09-1.09Z"/>
<path fill="#6513e1" class="cls-1" d="m20.77,0C9.29,0,0,9.29,0,20.77c0,11.48,9.29,20.77,20.77,20.77,11.48,0,20.77-9.29,20.77-20.77S32.25,0,20.77,0Zm0,2.68c9.95,0,18.1,8.14,18.1,18.1s-8.14,18.1-18.1,18.1S2.68,30.73,2.68,20.77,10.82,2.68,20.77,2.68"/></svg>  