<svg xmlns="http://www.w3.org/2000/svg" xmlns:xlink="http://www.w3.org/1999/xlink" width="254" zoomAndPan="magnify" viewBox="0 0 190.5 90.749999" height="121" preserveAspectRatio="xMidYMid meet" version="1.0"><defs><clipPath id="06961768f5"><path d="M 64.0625 3.367188 L 126.304688 3.367188 L 126.304688 87.355469 L 64.0625 87.355469 Z M 64.0625 3.367188 " clip-rule="nonzero"/></clipPath><clipPath id="57eb3628a7"><path d="M 104 3.367188 L 126.304688 3.367188 L 126.304688 26 L 104 26 Z M 104 3.367188 " clip-rule="nonzero"/></clipPath><clipPath id="e46ccc9bac"><path d="M 75.027344 37.78125 L 116.269531 37.78125 L 116.269531 63.277344 L 75.027344 63.277344 Z M 75.027344 37.78125 " clip-rule="nonzero"/></clipPath></defs><g clip-path="url(#06961768f5)"><path fill="#5e17eb" d="M 126.304688 25.660156 L 126.304688 83.003906 C 126.304688 83.289062 126.277344 83.570312 126.222656 83.847656 C 126.167969 84.125 126.085938 84.394531 125.976562 84.65625 C 125.867188 84.917969 125.734375 85.164062 125.578125 85.398438 C 125.421875 85.636719 125.242188 85.855469 125.042969 86.054688 C 124.84375 86.253906 124.625 86.433594 124.390625 86.589844 C 124.15625 86.746094 123.910156 86.878906 123.648438 86.988281 C 123.386719 87.097656 123.117188 87.179688 122.839844 87.234375 C 122.5625 87.289062 122.285156 87.316406 122 87.316406 L 68.367188 87.316406 C 68.082031 87.316406 67.804688 87.289062 67.527344 87.234375 C 67.25 87.179688 66.980469 87.097656 66.71875 86.988281 C 66.457031 86.878906 66.210938 86.746094 65.976562 86.589844 C 65.738281 86.433594 65.523438 86.253906 65.324219 86.054688 C 65.125 85.855469 64.945312 85.636719 64.789062 85.398438 C 64.628906 85.164062 64.5 84.917969 64.390625 84.65625 C 64.28125 84.394531 64.199219 84.125 64.144531 83.847656 C 64.089844 83.570312 64.0625 83.289062 64.0625 83.003906 L 64.0625 7.714844 C 64.0625 7.433594 64.089844 7.152344 64.144531 6.875 C 64.199219 6.597656 64.28125 6.328125 64.390625 6.066406 C 64.5 5.804688 64.628906 5.554688 64.789062 5.320312 C 64.945312 5.085938 65.125 4.867188 65.324219 4.667969 C 65.523438 4.464844 65.738281 4.289062 65.976562 4.128906 C 66.210938 3.972656 66.457031 3.839844 66.71875 3.730469 C 66.980469 3.625 67.25 3.542969 67.527344 3.484375 C 67.804688 3.429688 68.082031 3.402344 68.367188 3.402344 L 104.089844 3.402344 Z M 126.304688 25.660156 " fill-opacity="1" fill-rule="nonzero"/></g><g clip-path="url(#57eb3628a7)"><path fill="#8c52ff" d="M 126.304688 25.660156 L 105.894531 25.660156 C 105.652344 25.660156 105.425781 25.617188 105.203125 25.523438 C 104.980469 25.433594 104.785156 25.300781 104.617188 25.132812 C 104.449219 24.960938 104.316406 24.765625 104.226562 24.546875 C 104.132812 24.324219 104.089844 24.09375 104.089844 23.851562 L 104.089844 3.402344 Z M 126.304688 25.660156 " fill-opacity="1" fill-rule="nonzero"/></g><path fill="#5e17eb" d="M 82.050781 47.882812 L 75.972656 47.882812 L 75.972656 63.320312 L 79.726562 63.320312 L 79.726562 57.777344 L 82.050781 57.777344 C 85.980469 57.777344 87.714844 55.402344 87.714844 52.851562 C 87.714844 50.015625 85.828125 47.882812 82.050781 47.882812 Z M 81.765625 54.789062 L 79.726562 54.789062 L 79.726562 50.917969 L 81.765625 50.917969 C 83.257812 50.917969 83.894531 51.664062 83.894531 52.851562 C 83.894531 54.039062 83.257812 54.789062 81.765625 54.789062 Z M 81.765625 54.789062 " fill-opacity="1" fill-rule="nonzero"/><path fill="#5e17eb" d="M 95.4375 47.882812 L 89.667969 47.882812 L 89.667969 63.320312 L 95.4375 63.320312 C 100.351562 63.320312 103.511719 60.175781 103.511719 55.601562 C 103.511719 51.007812 100.351562 47.882812 95.4375 47.882812 Z M 95.195312 60.066406 L 93.417969 60.066406 L 93.417969 51.09375 L 95.195312 51.09375 C 98.027344 51.09375 99.695312 52.765625 99.695312 55.601562 C 99.695312 58.4375 98.027344 60.066406 95.195312 60.066406 Z M 95.195312 60.066406 " fill-opacity="1" fill-rule="nonzero"/><path fill="#5e17eb" d="M 115.648438 50.898438 L 115.648438 47.882812 L 105.621094 47.882812 L 105.621094 63.320312 L 109.371094 63.320312 L 109.371094 57.074219 L 114.066406 57.074219 L 114.066406 54.152344 L 109.371094 54.152344 L 109.371094 50.898438 Z M 115.648438 50.898438 " fill-opacity="1" fill-rule="nonzero"/><path fill="#ffffff" d="M 88.105469 54.738281 L 88.105469 46.316406 L 94.207031 50.523438 Z M 96.128906 49.84375 L 87.742188 44.054688 C 87.488281 43.882812 87.164062 43.863281 86.894531 44.003906 C 86.621094 44.148438 86.453125 44.429688 86.453125 44.742188 L 86.453125 56.316406 C 86.453125 56.625 86.621094 56.90625 86.894531 57.050781 C 87.015625 57.117188 87.144531 57.144531 87.277344 57.144531 C 87.4375 57.144531 87.601562 57.097656 87.742188 57.003906 L 96.128906 51.210938 C 96.351562 51.054688 96.488281 50.800781 96.488281 50.527344 C 96.488281 50.25 96.355469 49.996094 96.128906 49.84375 " fill-opacity="1" fill-rule="nonzero"/><g clip-path="url(#e46ccc9bac)"><path fill="#ffffff" d="M 114.617188 56.574219 L 106.488281 52.738281 L 106.488281 48.3125 L 114.617188 44.480469 Z M 104.835938 58.507812 C 104.835938 60.117188 103.535156 61.425781 101.933594 61.425781 L 79.578125 61.425781 C 77.976562 61.425781 76.671875 60.113281 76.671875 58.507812 L 76.671875 42.546875 C 76.671875 40.9375 77.976562 39.628906 79.578125 39.628906 L 101.933594 39.628906 C 103.535156 39.628906 104.839844 40.9375 104.839844 42.546875 L 104.839844 53.265625 Z M 115.890625 42.472656 C 115.652344 42.316406 115.351562 42.300781 115.09375 42.421875 L 106.488281 46.476562 L 106.488281 42.546875 C 106.488281 40.023438 104.441406 37.964844 101.933594 37.964844 L 79.578125 37.964844 C 77.066406 37.964844 75.027344 40.023438 75.027344 42.546875 L 75.027344 58.507812 C 75.027344 61.035156 77.066406 63.089844 79.578125 63.089844 L 101.933594 63.089844 C 104.445312 63.089844 106.488281 61.035156 106.488281 58.507812 L 106.488281 54.574219 L 115.09375 58.636719 C 115.207031 58.6875 115.324219 58.714844 115.445312 58.714844 C 115.601562 58.714844 115.753906 58.667969 115.890625 58.585938 C 116.125 58.433594 116.269531 58.167969 116.269531 57.882812 L 116.269531 43.171875 C 116.269531 42.890625 116.125 42.625 115.890625 42.472656 " fill-opacity="1" fill-rule="nonzero"/></g></svg>