<?xml version="1.0" encoding="utf-8"?>
<!-- Generator: Adobe Illustrator 26.0.3, SVG Export Plug-In . SVG Version: 6.00 Build 0)  -->
<svg version="1.1" id="Layer_1" xmlns="http://www.w3.org/2000/svg" xmlns:xlink="http://www.w3.org/1999/xlink" x="0px" y="0px"
	 viewBox="0 0 375 254" style="enable-background:new 0 0 375 254;" xml:space="preserve">
<style type="text/css">
	.st0{clip-path:url(#SVGID_00000118363715334821889580000005907966139985374091_);fill:#5D17EB;}
	.st1{fill:#FFFFFF;}
</style>
<g>
	<g>
		<defs>
			<rect id="SVGID_1_" x="0" width="375" height="254"/>
		</defs>
		<use xlink:href="#SVGID_1_"  style="overflow:visible;fill-rule:evenodd;clip-rule:evenodd;fill:#5D17EB;"/>
		<clipPath id="SVGID_00000048481619676717746620000011025380430558283951_">
			<use xlink:href="#SVGID_1_"  style="overflow:visible;"/>
		</clipPath>
		
			<rect x="0" style="clip-path:url(#SVGID_00000048481619676717746620000011025380430558283951_);fill:#5D17EB;" width="375" height="254"/>
	</g>
	<g>
		<path class="st1" d="M190.99,123.73l-60.94-27.67c-1.84-0.83-4.2-0.92-6.17-0.25c-1.97,0.69-3.19,2.05-3.19,3.53v55.33
			c0,1.48,1.22,2.82,3.19,3.51c0.88,0.32,1.84,0.46,2.79,0.46c1.17,0,2.37-0.23,3.38-0.69l60.94-27.68
			c1.62-0.74,2.61-1.96,2.61-3.26C193.59,125.69,192.64,124.47,190.99,123.73 M132.68,147.13v-40.26l44.34,20.12L132.68,147.13z"/>
		<path class="st1" d="M334.62,88.5c-1.73-0.74-3.91-0.83-5.77-0.25l-62.57,19.38V88.85c0-12.06-14.85-21.9-33.08-21.9H70.7
			c-18.26,0-33.08,9.84-33.08,21.9v76.3c0,12.08,14.82,21.9,33.08,21.9h162.5c18.26,0,33.11-9.82,33.11-21.9v-18.8l62.54,19.41
			c0.82,0.25,1.68,0.37,2.55,0.37c1.12,0,2.24-0.21,3.22-0.62c1.7-0.72,2.77-1.99,2.77-3.35V91.85
			C337.38,90.49,336.32,89.22,334.62,88.5 M254.27,165.15c0,7.71-9.45,13.95-21.08,13.95H70.7c-11.63,0-21.1-6.26-21.1-13.95v-76.3
			c0-7.69,9.47-13.95,21.1-13.95h162.5c11.63,0,21.1,6.26,21.1,13.95v51.24L254.27,165.15z M325.38,155.91l-59.11-18.34v-21.16
			l59.11-18.32V155.91z"/>
	</g>
</g>
</svg>
