<?xml version="1.0" encoding="utf-8"?>
<!-- Generator: Adobe Illustrator 27.3.1, SVG Export Plug-In . SVG Version: 6.00 Build 0)  -->
<svg version="1.1" id="Layer_1" xmlns="http://www.w3.org/2000/svg" xmlns:xlink="http://www.w3.org/1999/xlink" x="0px" y="0px" height="30px"  width="30px"
	 viewBox="0 0 48 48" style="enable-background:new 0 0 48 48;" xml:space="preserve">
<g>
	<g>
		<path fill="#ffffff" d="M16,30.1h-3.3l-0.5,1.5H10l3.2-8.8h2.5l3.2,8.8h-2.3L16,30.1z M15.5,28.5l-1.1-3.2l-1.1,3.2H15.5z"/>
		<path fill="#ffffff" d="M26.3,27.9c0.3,0.4,0.5,0.8,0.5,1.4c0,0.7-0.3,1.3-0.8,1.7c-0.5,0.4-1.2,0.6-2.1,0.6h-4.1v-8.8h3.9c0.9,0,1.6,0.2,2.1,0.6
			c0.5,0.4,0.8,1,0.8,1.7c0,0.5-0.1,0.9-0.4,1.3s-0.6,0.6-1.1,0.7C25.6,27.3,26,27.5,26.3,27.9z M21.9,26.4h1.4
			c0.3,0,0.6-0.1,0.8-0.2c0.2-0.2,0.3-0.4,0.3-0.7c0-0.3-0.1-0.5-0.3-0.7c-0.2-0.2-0.5-0.2-0.8-0.2h-1.4V26.4z M24.3,29.7
			c0.2-0.2,0.3-0.4,0.3-0.7c0-0.3-0.1-0.5-0.3-0.7S23.8,28,23.5,28h-1.5v1.9h1.6C23.9,29.9,24.1,29.9,24.3,29.7z"/>
		<path fill="#ffffff" d="M28.2,25c0.4-0.7,0.9-1.2,1.6-1.6c0.7-0.4,1.4-0.6,2.3-0.6c1,0,1.9,0.3,2.7,0.8c0.7,0.5,1.2,1.3,1.5,2.2h-2.3
			c-0.2-0.4-0.4-0.6-0.7-0.8s-0.7-0.3-1.1-0.3c-0.7,0-1.2,0.2-1.6,0.7c-0.4,0.5-0.6,1.1-0.6,1.8s0.2,1.4,0.6,1.8
			c0.4,0.5,0.9,0.7,1.6,0.7c0.4,0,0.8-0.1,1.1-0.3s0.6-0.5,0.7-0.8h2.3c-0.2,0.9-0.7,1.7-1.5,2.2c-0.7,0.5-1.6,0.8-2.7,0.8
			c-0.8,0-1.6-0.2-2.3-0.6c-0.7-0.4-1.2-0.9-1.6-1.6c-0.4-0.7-0.6-1.4-0.6-2.3C27.7,26.4,27.8,25.6,28.2,25z"/>
	</g>
	<g>
		<path fill="#ffffff" d="M9.5,38.5c-0.3,0-2.1,0-3.9-1c-1.8-0.9-4.1-3-4.1-7.2c0-5.2,4-8.1,6.9-9.2c-0.2-3.2,0.9-8.2,6-10.6
			c3.1-1.3,5.9-1.4,8.4-0.3c2.4,1,3.9,3,4.7,4.4c1.7-1.1,4.5-2.3,7.8-0.7c3.9,1.9,4.9,5.3,4.8,7.7c2.8,0.9,6.5,3.5,6.5,8.7
			c0,6.2-4.9,8.1-7.6,8.3L9.5,38.5C9.5,38.5,9.5,38.5,9.5,38.5z M19.1,12.5c-1.1,0-2.3,0.3-3.5,0.8c-5.3,2.5-4.1,8.5-4.1,8.6
			l0.3,1.4l-1.4,0.4c-0.2,0.1-5.9,1.6-5.9,6.7c0,5.1,4.5,5.2,5,5.2l0,1.5v-1.5h29.4c0.4,0,4.6-0.4,4.6-5.3c0-5.1-5.2-6-5.4-6.1
			l-1.6-0.3l0.4-1.6c0.1-0.4,0.8-3.9-3-5.7c-3.1-1.5-5.8,1.3-5.9,1.4l-1.7,1.8l-0.8-2.3c0,0-1.2-3.3-4-4.5
			C20.8,12.6,20,12.5,19.1,12.5z"/>
	</g>
</g>
</svg>
