<?xml version="1.0" encoding="UTF-8"?><svg id="Layer_1" xmlns="http://www.w3.org/2000/svg" viewBox="0 0 48 48"><defs><style>.cls-1{fill:#6b12de;}.cls-1,.cls-2{stroke-width:0px;}.cls-2{fill:#fff;}</style></defs><rect class="cls-2" width="48" height="48"/><path class="cls-1" d="m17.29,29.56h-2.76l-.44,1.31h-1.88l2.67-7.39h2.08l2.67,7.39h-1.91l-.44-1.31Zm-.46-1.39l-.92-2.71-.91,2.71h1.82Z"/><path class="cls-1" d="m25.96,27.72c.26.33.39.71.39,1.14,0,.62-.22,1.11-.65,1.47-.43.36-1.03.54-1.81.54h-3.44v-7.39h3.33c.75,0,1.34.17,1.76.52.42.34.64.81.64,1.4,0,.44-.11.8-.34,1.08s-.53.49-.91.6c.43.09.77.3,1.03.64Zm-3.71-1.25h1.18c.29,0,.52-.06.68-.19.16-.13.24-.32.24-.57s-.08-.45-.24-.58c-.16-.13-.38-.2-.68-.2h-1.18v1.55Zm2.03,2.74c.16-.14.25-.33.25-.59s-.09-.46-.26-.61-.41-.22-.71-.22h-1.31v1.63h1.33c.3,0,.53-.07.7-.21Z"/><path class="cls-1" d="m27.56,25.21c.32-.57.76-1.02,1.32-1.34.56-.32,1.2-.48,1.92-.48.88,0,1.63.23,2.25.69.62.46,1.04,1.09,1.25,1.89h-1.98c-.15-.31-.36-.54-.63-.71s-.58-.24-.92-.24c-.55,0-1,.19-1.35.58-.34.39-.52.9-.52,1.55s.17,1.16.52,1.55c.34.39.79.58,1.35.58.34,0,.65-.08.92-.24s.48-.4.63-.7h1.98c-.21.8-.63,1.43-1.25,1.89-.63.46-1.38.69-2.25.69-.72,0-1.36-.16-1.92-.48-.57-.32-1.01-.76-1.32-1.33-.32-.57-.47-1.22-.47-1.95s.16-1.38.47-1.95Z"/><path class="cls-1" d="m11.75,36.25c-.26,0-1.75-.04-3.29-.83-1.56-.8-3.42-2.5-3.46-6.08,0-4.37,3.37-6.82,5.82-7.8-.15-2.68.45-6.96,4.79-9,2.62-1.09,5.27-1.09,7.35-.16,1.99.88,3.26,2.5,3.98,3.71,1.42-.93,3.96-2.08,6.71-.77,3.32,1.58,3.95,4.63,3.88,6.64,2.36.79,5.47,2.95,5.47,7.31,0,5.25-4.17,6.86-6.37,6.98H11.76s0,0-.01,0Zm4.99-22.22c-4.68,1.98-3.86,8.76-3.86,8.76,0,0-5.78,2.06-5.78,6.7.04,4.58,3.9,4.72,4.34,4.72h0l24.98.05c.34-.03,4.49-.45,4.49-4.83,0-4.59-5.34-6.19-5.34-6.19,0,0,.34-4.54-2.93-6.17-2.7-1.35-6.33,1.23-6.33,1.23,0,0-3.75-6.73-9.56-4.27Z"/></svg>