<?xml version="1.0" encoding="utf-8"?>
<!-- Generator: Adobe Illustrator 27.3.1, SVG Export Plug-In . SVG Version: 6.00 Build 0)  -->
<svg version="1.0" id="Layer_1" xmlns="http://www.w3.org/2000/svg" xmlns:xlink="http://www.w3.org/1999/xlink" x="0px" y="0px"
	 viewBox="0 0 194 110" style="enable-background:new 0 0 194 110;" xml:space="preserve">
<style type="text/css">
	.st0{fill:#C9C9C9;}
	.st1{fill:#E0E0E0;}
	.st2{fill:#A8A8A8;}
	.st3{fill:#AEAEAE;}
</style>
<rect x="15.8" y="11.7" class="st0" width="162.4" height="11.2"/>
<g>
	<path class="st1" d="M97,32.9c-0.1,0-0.4,0-0.5,0l0.1,33.6l13.1-31.2C105.8,33.7,101.5,32.9,97,32.9z"/>
	<path class="st2" d="M96.6,66.5L96.6,66.5l-0.1,0.4L91,100.4c1.9,0.3,4,0.5,6,0.5c6.6,0,12.8-1.8,18.1-5.2L96.6,66.5z"/>
	<path class="st3" d="M96.6,32.9C78,33.1,63,48.2,63,66.9c0,16.7,12.1,30.7,28,33.5l5.6-33.9L96.6,32.9z"/>
	<path class="st0" d="M109.8,35.4L96.6,66.5l18.5,29.2c9.6-6,15.9-16.7,15.9-28.8C131,52.6,122.2,40.4,109.8,35.4z"/>
</g>
</svg>
