<?xml version="1.0" encoding="utf-8"?>
<!-- Generator: Adobe Illustrator 27.3.1, SVG Export Plug-In . SVG Version: 6.00 Build 0)  -->
<svg version="1.0" id="Layer_1" xmlns="http://www.w3.org/2000/svg" xmlns:xlink="http://www.w3.org/1999/xlink" x="0px" y="0px"
	 viewBox="0 0 194 110" style="enable-background:new 0 0 194 110;" xml:space="preserve">
<style type="text/css">
	.st0{fill:#C9C9C9;}
	.st1{fill:#AEAEAE;}
</style>
<rect x="15.8" y="11.7" class="st0" width="162.4" height="11.2"/>
<g>
	<rect x="24.5" y="84.8" class="st1" width="12.2" height="13.6"/>
	
		<rect x="41.6" y="84.8" transform="matrix(-1 -1.224647e-16 1.224647e-16 -1 211.0594 183.3009)" class="st1" width="127.9" height="13.6"/>
	<rect x="24.5" y="33" class="st1" width="12.2" height="13.6"/>
	
		<rect x="41.6" y="33" transform="matrix(-1 -1.224647e-16 1.224647e-16 -1 211.0594 79.6396)" class="st1" width="127.9" height="13.6"/>
	<rect x="24.5" y="58.9" class="st1" width="12.2" height="13.6"/>
	
		<rect x="41.6" y="58.9" transform="matrix(-1 -1.224647e-16 1.224647e-16 -1 211.0594 131.4703)" class="st1" width="127.9" height="13.6"/>
	<rect x="24.5" y="84.8" class="st1" width="12.2" height="13.6"/>
	
		<rect x="41.6" y="84.8" transform="matrix(-1 -1.224647e-16 1.224647e-16 -1 211.0594 183.3009)" class="st1" width="127.9" height="13.6"/>
	<rect x="24.5" y="84.8" class="st1" width="12.2" height="13.6"/>
	
		<rect x="41.6" y="84.8" transform="matrix(-1 -1.224647e-16 1.224647e-16 -1 211.0594 183.3009)" class="st1" width="127.9" height="13.6"/>
	<rect x="24.5" y="84.8" class="st1" width="12.2" height="13.6"/>
	
		<rect x="41.6" y="84.8" transform="matrix(-1 -1.224647e-16 1.224647e-16 -1 211.0594 183.3009)" class="st1" width="127.9" height="13.6"/>
	<rect x="24.5" y="84.8" class="st1" width="12.2" height="13.6"/>
	
		<rect x="41.6" y="84.8" transform="matrix(-1 -1.224647e-16 1.224647e-16 -1 211.0594 183.3009)" class="st1" width="127.9" height="13.6"/>
</g>
</svg>
