<?xml version="1.0" encoding="utf-8"?>
<!-- Generator: Adobe Illustrator 27.3.1, SVG Export Plug-In . SVG Version: 6.00 Build 0)  -->
<svg version="1.1" id="Layer_1" xmlns="http://www.w3.org/2000/svg" xmlns:xlink="http://www.w3.org/1999/xlink" x="0px" y="0px"
	 viewBox="0 0 194 110" style="enable-background:new 0 0 194 110;" xml:space="preserve">
<style type="text/css">
	.st0{fill:#C9C9C9;}
	.st1{fill:#AEAEAE;}
</style>
<rect x="15.8" y="11.7" class="st0" width="162.4" height="11.2"/>
<g>
	<rect x="23.4" y="37.4" class="st1" width="28.2" height="5"/>
</g>
<g>
	<rect x="54.8" y="37.4" class="st1" width="43.2" height="5"/>
</g>
<g>
	<rect x="101.7" y="37.4" class="st1" width="10" height="5"/>
</g>
<g>
	<rect x="115.2" y="37.4" class="st1" width="19.8" height="5"/>
</g>
<g>
	<rect x="138.6" y="37.4" class="st1" width="32" height="5"/>
</g>
<g>
	<rect x="23.4" y="72.6" class="st1" width="74.5" height="5"/>
</g>
<g>
	<rect x="101.4" y="72.6" class="st1" width="19.8" height="5"/>
</g>
<g>
	<rect x="124.9" y="72.6" class="st1" width="45.7" height="5"/>
</g>
<g>
	<rect x="23.4" y="88.4" class="st1" width="11.4" height="5"/>
</g>
<g>
	<rect x="38.3" y="88.4" class="st1" width="42.9" height="5"/>
</g>
<g>
	<rect x="23.3" y="55" class="st1" width="43.2" height="5"/>
</g>
<g>
	<rect x="92.7" y="55" class="st1" width="10" height="5"/>
</g>
<g>
	<rect x="69.7" y="55" class="st1" width="19.8" height="5"/>
</g>
<g>
	<rect x="148.5" y="55" class="st1" width="22.2" height="5"/>
</g>
<g>
	<rect x="106.2" y="55" class="st1" width="38.8" height="5"/>
</g>
</svg>
