<?xml version="1.0" encoding="UTF-8"?><svg id="Layer_1" xmlns="http://www.w3.org/2000/svg" viewBox="0 0 194 110"><defs><style>.cls-1{fill:#e0e0e0;}.cls-1,.cls-2,.cls-3,.cls-4{stroke-width:0px;}.cls-2{fill:#fff;}.cls-3{fill:#969696;}.cls-4{fill:#c9c9c9;}</style></defs><rect class="cls-2" width="194" height="110"/><rect class="cls-4" x="15.81" y="11.75" width="162.39" height="11.23"/><rect class="cls-1" x="31" y="29" width="132" height="70"/><path class="cls-3" d="m109.23,71.09l-5.68-9.05c-.1-.17-.28-.27-.48-.27-.2,0-.38.1-.48.27l-1.66,2.66,3.56,5.76c.3.46.37,1.03.17,1.54h4.02c.33.02.61-.24.63-.57,0-.12-.02-.24-.09-.34Z"/><path class="cls-3" d="m94.98,63.35l-1.43,1.28-1.43-1.28-2.37,1.43,3.73-6.05,3.63,5.89-2.12-1.28Zm8.07,7.8l-9.02-14.68c-.12-.15-.3-.23-.48-.23h-.15c-.19,0-.37.08-.49.23l-9.02,14.68c-.13.18-.15.41-.05.61.1.18.3.27.5.24h18.25c.2.03.4-.07.5-.24.1-.2.08-.43-.05-.61Z"/><circle class="cls-3" cx="88.08" cy="57.16" r="1.24"/><path class="cls-3" d="m114.5,76.31h-35v-24.63h35v24.63Zm-32.41-2.59h29.81v-19.44h-29.81v19.44Z"/></svg>