<?xml version="1.0" encoding="utf-8"?>
<!-- Generator: Adobe Illustrator 27.3.1, SVG Export Plug-In . SVG Version: 6.00 Build 0)  -->
<svg version="1.0" id="Layer_1" xmlns="http://www.w3.org/2000/svg" xmlns:xlink="http://www.w3.org/1999/xlink" x="0px" y="0px"
	 viewBox="0 0 194 110" style="enable-background:new 0 0 194 110;" xml:space="preserve">
<style type="text/css">
	.st0{fill:#C9C9C9;}
	.st1{fill:#AEAEAE;}
	.st2{fill:#E0E0E0;}
</style>
<rect x="15.8" y="11.7" class="st0" width="162.4" height="11.2"/>
<g>
	<rect x="27.2" y="38.4" class="st1" width="54.5" height="10.2"/>
	
		<rect x="81.7" y="38.4" transform="matrix(-1 -1.224647e-16 1.224647e-16 -1 249.3568 87.0706)" class="st2" width="86" height="10.2"/>
	<rect x="27.2" y="52.7" class="st1" width="18.5" height="10.2"/>
	
		<rect x="45.6" y="52.7" transform="matrix(-1 -1.224647e-16 1.224647e-16 -1 213.3081 115.6597)" class="st2" width="122" height="10.2"/>
	<rect x="27.2" y="69.1" class="st1" width="101.7" height="10.2"/>
	
		<rect x="128.8" y="69.1" transform="matrix(-1 -1.224647e-16 1.224647e-16 -1 296.4973 148.333)" class="st2" width="38.8" height="10.2"/>
	<rect x="27.2" y="84.4" class="st1" width="39.7" height="10.2"/>
	
		<rect x="66.9" y="84.4" transform="matrix(-1 -1.224647e-16 1.224647e-16 -1 234.5676 178.9643)" class="st2" width="100.8" height="10.2"/>
	<g>
		<rect x="171.4" y="33" class="st2" width="1.6" height="65.3"/>
	</g>
	<g>
		<rect x="21" y="33" class="st2" width="1.6" height="65.3"/>
	</g>
</g>
</svg>
