<?xml version="1.0" encoding="utf-8"?>
<!-- Generator: Adobe Illustrator 27.3.1, SVG Export Plug-In . SVG Version: 6.00 Build 0)  -->
<svg version="1.0" id="Layer_1" xmlns="http://www.w3.org/2000/svg" xmlns:xlink="http://www.w3.org/1999/xlink" x="0px" y="0px"
	 viewBox="0 0 194 110" style="enable-background:new 0 0 194 110;" xml:space="preserve">
<style type="text/css">
	.st0{fill:#C9C9C9;}
	.st1{fill:#E0E0E0;}
	.st2{fill:#A8A8A8;}
	.st3{fill:#AEAEAE;}
</style>
<rect x="15.8" y="11.7" class="st0" width="162.4" height="11.2"/>
<g>
	<path class="st0" d="M104.1,48.6l5.6-13.3l0,0l0,0L104.1,48.6L104.1,48.6z"/>
	<polygon points="115.1,95.7 115.1,95.7 108.8,85.8 	"/>
	<path class="st1" d="M96.5,32.9L96.5,32.9C96.5,32.9,96.5,32.9,96.5,32.9v14.4c0.1,0,0.1,0,0.2,0l0,0c0.1,0,0.2,0,0.3,0
		c2.5,0,4.9,0.5,7.1,1.3l5.6-13.3c-3.9-1.5-8.2-2.4-12.7-2.4C96.9,32.9,96.7,32.9,96.5,32.9z"/>
	<path class="st2" d="M107.4,83.5c-3,1.9-6.6,3-10.4,3c-1.1,0-2.4-0.1-3.5-0.3v-0.1c-0.1,0-0.1,0-0.2-0.1L91,100.4
		c1.9,0.3,4,0.5,6,0.5c6.6,0,12.8-1.8,18.1-5.2l-6.3-9.8L107.4,83.5z"/>
	<path class="st3" d="M77.4,66.9c0-10.7,8.5-19.3,19.1-19.6l-0.1-14.4C77.9,33.2,63,48.3,63,66.9c0,16.7,12.1,30.6,28,33.5l2.4-14.2
		C84.3,84.4,77.4,76.5,77.4,66.9z"/>
	<path class="st3" d="M96.6,47.3V32.9c-0.1,0-0.1,0-0.1,0L96.6,47.3C96.5,47.3,96.5,47.3,96.6,47.3z"/>
	<path class="st2" d="M91,100.4L91,100.4L91,100.4C91,100.4,91,100.4,91,100.4l2.4-14.3l0,0L91,100.4z"/>
	<path class="st0" d="M115.1,95.7c9.6-6,15.9-16.7,15.9-28.8c0-14.3-8.8-26.5-21.2-31.5l0,0l-5.6,13.3c0.1,0.1,0.2,0.1,0.2,0.1l0,0
		c7.2,2.9,12.2,9.9,12.2,18.1c0,7-3.7,13.1-9.2,16.6l0,0c0,0-0.1,0-0.1,0.1l1.5,2.3L115.1,95.7L115.1,95.7L115.1,95.7z"/>
	<polygon class="st2" points="108.8,85.8 107.4,83.5 107.4,83.5 	"/>
</g>
</svg>
