<?xml version="1.0" encoding="UTF-8"?>
<svg id="Layer_1" xmlns="http://www.w3.org/2000/svg" viewBox="0 0 41.5 41.55" height="48px" width="48px">
    <defs>
        <style>
            .cls-1 { fill: #666666; stroke-width: 0px; }
        </style>
    </defs>
    <path class="cls-1" d="M20.77,38.87c-9.95,0-18.1-8.14-18.1-18.1S10.82,2.68,20.77,2.68c4.98,0,9.5,2.04,12.78,5.32l1.89-1.9C31.67,2.1,26.72,0,20.77,0,9.29,0,0,9.29,0,20.77s9.29,20.77,20.77,20.77c1.59,0,3.14-.2,4.63-.53l-1.58-2.42c-.99.17-2.01.28-3.05.28Z"/>
    <polygon class="cls-1" points="8.36 19.48 6.18 21.44 15.04 31.28 17.22 29.32 17.2 29.3 41.5 7.43 39.71 5.44 15.41 27.32 8.36 19.48"/>
    <polygon class="cls-1" points="32.51 22.93 29.83 22.93 29.83 29.08 23.69 29.08 23.69 31.76 29.83 31.76 29.83 37.91 32.51 37.91 32.51 31.76 38.66 31.76 38.66 29.08 32.51 29.08 32.51 22.93"/>
</svg>
