<svg xmlns="http://www.w3.org/2000/svg" xmlns:xlink="http://www.w3.org/1999/xlink" width="48" zoomAndPan="magnify"
viewBox="0 0 36 36.000001" height="48" preserveAspectRatio="xMidYMid meet" version="1.0"><defs>
<clipPath id="dad0eb6daf">
<path d="M 0.488281 0 L 35.511719 0 L 35.511719 35.027344 L 0.488281 35.027344 Z M 0.488281 0 " clip-rule="nonzero"/>
</clipPath><clipPath id="6e41433205"><path d="M 1.683594 0 L 34.519531 0 L 34.519531 35.027344 L 1.683594 35.027344 Z M 1.683594 0 " clip-rule="nonzero"/></clipPath></defs><g clip-path="url(#dad0eb6daf)"><path fill="#ffffff" d="M 0.488281 0 L 35.511719 0 L 35.511719 35.027344 L 0.488281 35.027344 Z M 0.488281 0 " fill-opacity="1" fill-rule="nonzero"/><path fill="#ffffff" d="M 0.488281 0 L 35.511719 0 L 35.511719 35.027344 L 0.488281 35.027344 Z M 0.488281 0 " fill-opacity="1" fill-rule="nonzero"/></g><g clip-path="url(#6e41433205)"><path fill="#000000" d="M 13.585938 12.78125 C 11.757812 12.78125 10.828125 10.285156 12.625 9.246094 C 13.578125 8.6875 14.652344 9.050781 15.21875 9.890625 C 15.945312 10.964844 15.1875 12.78125 13.585938 12.78125 Z M 18.140625 35.027344 C 9.066406 35.027344 1.683594 27.691406 1.683594 18.671875 C 1.683594 10.640625 7.503906 3.878906 15.429688 2.585938 L 14.367188 0.832031 C 14.128906 0.453125 14.429688 0 14.835938 0 L 21.375 0 C 21.804688 0 22.074219 0.460938 21.855469 0.816406 L 20.789062 2.59375 C 28.714844 3.902344 34.519531 10.667969 34.519531 18.671875 C 34.519531 27.691406 27.164062 35.027344 18.140625 35.027344 Z M 16.773438 2.675781 L 18.128906 4.890625 L 19.308594 2.910156 C 19.332031 2.78125 19.40625 2.667969 19.503906 2.585938 L 20.398438 1.09375 L 15.804688 1.09375 Z M 16.058594 3.597656 C 8.472656 4.613281 2.789062 11.039062 2.789062 18.671875 C 2.789062 27.089844 9.667969 33.925781 18.140625 33.925781 C 26.5625 33.925781 33.414062 27.089844 33.414062 18.671875 C 33.414062 11.046875 27.757812 4.640625 20.1875 3.605469 L 19.089844 5.4375 C 26.007812 5.921875 31.488281 11.675781 31.488281 18.671875 C 31.488281 26.023438 25.429688 31.988281 18.121094 31.949219 C 10.625 31.921875 4.714844 25.910156 4.714844 18.671875 C 4.714844 11.757812 10.121094 5.933594 17.179688 5.4375 Z M 17.585938 6.511719 C 13.457031 6.691406 9.855469 8.890625 7.757812 12.128906 L 16.234375 16.984375 C 16.585938 16.597656 17.058594 16.320312 17.585938 16.199219 Z M 7.203125 13.066406 C 5.351562 16.582031 5.351562 20.773438 7.203125 24.28125 L 15.699219 19.417969 C 15.554688 18.929688 15.554688 18.414062 15.699219 17.9375 Z M 7.757812 25.226562 C 9.855469 28.464844 13.457031 30.65625 17.585938 30.839844 L 17.585938 21.144531 C 17.058594 21.03125 16.585938 20.75 16.234375 20.363281 Z M 18.683594 30.839844 C 22.78125 30.65625 26.367188 28.464844 28.457031 25.226562 L 20.007812 20.351562 C 19.667969 20.742188 19.210938 21.023438 18.683594 21.144531 Z M 29.007812 24.28125 C 30.847656 20.773438 30.847656 16.582031 29.007812 13.066406 L 20.519531 17.96875 C 20.644531 18.421875 20.644531 18.921875 20.519531 19.382812 Z M 28.457031 12.121094 C 26.367188 8.890625 22.78125 6.691406 18.683594 6.511719 L 18.683594 16.199219 C 19.210938 16.320312 19.667969 16.605469 20.007812 17 Z M 18.140625 17.234375 C 17.316406 17.234375 16.691406 17.914062 16.691406 18.671875 C 16.691406 19.390625 17.300781 20.109375 18.140625 20.109375 C 19.953125 20.109375 19.953125 17.234375 18.140625 17.234375 Z M 22.617188 12.773438 C 20.449219 12.773438 19.933594 9.65625 22.140625 9.035156 C 22.644531 8.898438 23.15625 8.96875 23.570312 9.234375 C 25.34375 10.253906 24.59375 12.773438 22.617188 12.773438 Z M 21.910156 10.464844 C 21.40625 11.570312 22.878906 12.113281 23.359375 11.28125 C 23.828125 10.472656 22.617188 9.511719 21.910156 10.464844 Z M 23.847656 11.5625 Z M 27.15625 20.585938 C 26.089844 20.585938 25.226562 19.730469 25.226562 18.671875 C 25.226562 17.621094 26.089844 16.757812 27.15625 16.757812 C 28.210938 16.757812 29.082031 17.621094 29.082031 18.671875 C 29.082031 19.730469 28.210938 20.585938 27.15625 20.585938 Z M 27.15625 17.855469 C 26.066406 17.855469 26.066406 19.496094 27.15625 19.496094 C 28.238281 19.496094 28.238281 17.855469 27.15625 17.855469 Z M 22.652344 28.382812 C 20.675781 28.382812 19.976562 25.789062 21.644531 24.835938 C 22.539062 24.3125 23.707031 24.59375 24.308594 25.492188 C 25.097656 26.664062 24.089844 28.382812 22.652344 28.382812 Z M 21.910156 26.882812 C 22.625 27.851562 23.839844 26.867188 23.367188 26.074219 C 23.171875 25.742188 22.554688 25.515625 22.1875 25.789062 C 21.847656 25.976562 21.722656 26.46875 21.910156 26.882812 Z M 13.554688 28.382812 C 12.261719 28.382812 11.089844 26.96875 11.945312 25.515625 C 13.074219 23.578125 16.324219 24.828125 15.253906 27.40625 C 15.042969 27.898438 14.234375 28.382812 13.554688 28.382812 Z M 13.585938 25.660156 C 12.742188 25.660156 12.464844 26.867188 13.148438 27.140625 C 13.324219 27.222656 13.429688 27.34375 13.757812 27.253906 C 14.722656 26.976562 14.480469 25.660156 13.585938 25.660156 Z M 9.050781 20.585938 C 7.992188 20.585938 7.121094 19.730469 7.121094 18.671875 C 7.121094 17.621094 7.992188 16.757812 9.050781 16.757812 C 10.105469 16.757812 10.976562 17.621094 10.976562 18.671875 C 10.976562 19.730469 10.105469 20.585938 9.050781 20.585938 Z M 9.050781 17.855469 C 7.960938 17.855469 7.960938 19.496094 9.050781 19.496094 C 10.136719 19.496094 10.136719 17.855469 9.050781 17.855469 Z M 13.5625 10.058594 C 13 10.058594 12.496094 10.746094 12.902344 11.289062 C 13.644531 12.273438 14.742188 11.238281 14.277344 10.464844 C 14.164062 10.269531 13.835938 10.058594 13.5625 10.058594 Z M 12.902344 9.710938 Z M 12.902344 9.710938 " fill-opacity="1" fill-rule="evenodd"/></g>
</svg>