<?xml version="1.0" encoding="utf-8"?>
<!-- Generator: Adobe Illustrator 28.0.0, SVG Export Plug-In . SVG Version: 6.00 Build 0)  -->
<svg version="1.1" xmlns="http://www.w3.org/2000/svg" xmlns:xlink="http://www.w3.org/1999/xlink" x="0px" y="0px"
	 viewBox="0 0 1927.7 1079.8" style="enable-background:new 0 0 1927.7 1079.8;" xml:space="preserve">
<style type="text/css">
	.st0{fill:#6B12DF;}
	.st1{fill:#FFFFFF;}
</style>
<g id="Layer_1">
	<g>
		<path class="st0" d="M0,0v1079.8h1927.7V0H0z M1179.4,629.2L1179.4,629.2c0,3.9-0.4,7.6-1,11.3c-4.8,27.2-26.4,48.5-53.6,52.9
			c-1.2,0.2-2.4,0.4-3.7,0.5h-0.2H805.9h-0.2c-1.2-0.1-2.5-0.3-3.7-0.5c-27.3-4.4-48.9-25.7-53.6-52.9v0v-3.4
			c-0.3-2.6-0.5-5.2-0.5-7.9v0c0,2.7,0.2,5.3,0.5,7.9V439.6c4.7-26.8,25.9-48,52.7-52.7c3.7-0.6,7.4-1,11.3-1h302
			c3.9,0,7.6,0.4,11.3,1c26.8,4.7,48,25.9,52.7,52.7c0.6,3.7,1,7.4,1,11.3V629.2z"/>
		<path class="st0" d="M1114.4,414.9h-302c-19.9,0-36,16.1-36,36v178.3c0,19.8,16.1,36,36,36h302c19.9,0,36-16.1,36-36V450.9
			C1150.4,431.1,1134.2,414.9,1114.4,414.9z M927.4,606.9V473.3l0,0h0v0l113.1,66.8L927.4,606.9z"/>
		<path class="st0" d="M747.9,629.2L747.9,629.2c0,2.7,0.2,5.3,0.5,7.9v0C748.1,634.5,747.9,631.9,747.9,629.2z"/>
		<polygon class="st1" points="927.4,473.3 927.4,473.3 927.4,473.3 		"/>
	</g>
</g>
<g id="Layer_2">
</g>
</svg>
