<?xml version="1.0" encoding="utf-8"?>
<!-- Generator: Adobe Illustrator 28.0.0, SVG Export Plug-In . SVG Version: 6.00 Build 0)  -->
<svg version="1.1" id="Layer_1" xmlns="http://www.w3.org/2000/svg" xmlns:xlink="http://www.w3.org/1999/xlink" x="0px" y="0px"
	 viewBox="0 0 1296 1296" style="enable-background:new 0 0 1296 1296;" xml:space="preserve">
<style type="text/css">
	.st0{fill:#6B12DF;}
</style>
<g>
	<path class="st0" d="M799,522.8H497c-19.9,0-36,16.1-36,36v178.3c0,19.8,16.1,36,36,36h302c19.9,0,36-16.1,36-36V558.8
		C835,539,818.9,522.8,799,522.8z M593.1,716.4V582.8l113.1,66.8L593.1,716.4z"/>
	<path class="st0" d="M0,0v1296h1296V0H0z M864,737.2c0,35.9-29.1,65-65,65H497c-35.9,0-65-29.1-65-65V558.8c0-35.9,29.1-65,65-65
		h302c35.9,0,65,29.1,65,65V737.2z"/>
</g>
</svg>
