<svg xmlns="http://www.w3.org/2000/svg" xmlns:xlink="http://www.w3.org/1999/xlink" width="1080" zoomAndPan="magnify" viewBox="0 0 810 809.999993" height="1080" preserveAspectRatio="xMidYMid meet" version="1.0"><defs><clipPath id="2937ac6151"><path d="M 243.75 290.121094 L 566.25 290.121094 L 566.25 520 L 243.75 520 Z M 243.75 290.121094 " clip-rule="nonzero"/></clipPath><clipPath id="b11accfd2d"><path d="M 243 338.121094 L 243 471.878906 C 243 498.800781 264.824219 520.628906 291.75 520.628906 L 518.25 520.628906 C 545.175781 520.628906 567 498.800781 567 471.878906 L 567 338.121094 C 567 311.199219 545.175781 289.371094 518.25 289.371094 L 291.75 289.371094 C 264.824219 289.371094 243 311.199219 243 338.121094 Z M 243 338.121094 " clip-rule="nonzero"/></clipPath><clipPath id="78cbbad5eb"><path d="M 292.648438 290.273438 L 517.351562 290.273438 C 544.273438 290.273438 566.101562 312.097656 566.101562 339.023438 L 566.101562 470.976562 C 566.101562 497.902344 544.273438 519.726562 517.351562 519.726562 L 292.648438 519.726562 C 265.726562 519.726562 243.898438 497.902344 243.898438 470.976562 L 243.898438 339.023438 C 243.898438 312.097656 265.726562 290.273438 292.648438 290.273438 Z M 292.648438 290.273438 " clip-rule="nonzero"/></clipPath><clipPath id="8d9ec76ad3"><path d="M 243 289.371094 L 567 289.371094 L 567 520.371094 L 243 520.371094 Z M 243 289.371094 " clip-rule="nonzero"/></clipPath><clipPath id="866008ba33"><path d="M 243 338.121094 L 243 471.878906 C 243 498.800781 264.824219 520.628906 291.75 520.628906 L 518.25 520.628906 C 545.175781 520.628906 567 498.800781 567 471.878906 L 567 338.121094 C 567 311.199219 545.175781 289.371094 518.25 289.371094 L 291.75 289.371094 C 264.824219 289.371094 243 311.199219 243 338.121094 Z M 243 338.121094 " clip-rule="nonzero"/></clipPath><clipPath id="90803ee375"><path d="M 243 338.121094 L 243 471.871094 C 243 498.792969 264.824219 520.617188 291.75 520.617188 L 518.25 520.617188 C 545.175781 520.617188 567 498.792969 567 471.871094 L 567 338.121094 C 567 311.199219 545.175781 289.371094 518.25 289.371094 L 291.75 289.371094 C 264.824219 289.371094 243 311.199219 243 338.121094 Z M 243 338.121094 " clip-rule="nonzero"/></clipPath></defs><rect x="-81" width="972" fill="#ffffff" y="-80.999999" height="971.999992" fill-opacity="1"/><rect x="-81" width="972" fill="#6b12df" y="-80.999999" height="971.999992" fill-opacity="1"/><g clip-path="url(#2937ac6151)"><g clip-path="url(#b11accfd2d)"><g clip-path="url(#78cbbad5eb)"><path fill="#ffffff" d="M 300.9375 289.371094 C 268.980469 289.371094 243.128906 315.222656 243.128906 347.183594 L 243.128906 462.808594 C 243.128906 494.769531 268.980469 520.617188 300.9375 520.617188 L 509.0625 520.617188 C 541.019531 520.617188 566.871094 494.769531 566.871094 462.808594 L 566.871094 347.183594 C 566.871094 315.222656 541.019531 289.371094 509.0625 289.371094 Z M 300.9375 297.082031 L 509.0625 297.082031 C 536.882812 297.082031 559.164062 319.359375 559.164062 347.183594 L 559.164062 462.808594 C 559.164062 490.632812 536.882812 512.910156 509.0625 512.910156 L 300.9375 512.910156 C 273.117188 512.910156 250.835938 490.632812 250.835938 462.808594 L 250.835938 347.183594 C 250.835938 319.359375 273.117188 297.082031 300.9375 297.082031 Z M 378.019531 354.894531 L 378.019531 455.097656 L 462.8125 404.996094 Z M 378.019531 354.894531 " fill-opacity="1" fill-rule="nonzero"/></g></g></g><g clip-path="url(#8d9ec76ad3)"><g clip-path="url(#866008ba33)"><g clip-path="url(#90803ee375)"><path stroke-linecap="butt" transform="matrix(0.75, 0, 0, 0.75, 242.999991, 289.372505)" fill="none" stroke-linejoin="miter" d="M 0.0000116333 64.998121 L 0.0000116333 243.331463 C 0.0000116333 279.227298 29.098971 308.326258 65.000015 308.326258 L 367.00003 308.326258 C 402.901074 308.326258 432.000033 279.227298 432.000033 243.331463 L 432.000033 64.998121 C 432.000033 29.102286 402.901074 -0.00188226 367.00003 -0.00188226 L 65.000015 -0.00188226 C 29.098971 -0.00188226 0.0000116333 29.102286 0.0000116333 64.998121 Z M 0.0000116333 64.998121 " stroke="#ffffff" stroke-width="58" stroke-opacity="1" stroke-miterlimit="4"/></g></g></g></svg>